<mxfile host="drawio-plugin" modified="2023-02-07T11:58:07.978Z" agent="5.0 (Windows NT 6.2; Win64; x64) AppleWebKit/537.36 (KHTML, like Gecko) Chrome/89.0.4389.114 Safari/537.36" etag="_FijBtxRPMK5k9rSvNtf" version="20.5.3" type="embed" pages="6"><diagram id="TZyPKKOukCPIXgLwiUOl" name="MAIN"><mxGraphModel dx="646" dy="654" grid="1" gridSize="10" guides="1" tooltips="1" connect="1" arrows="1" fold="1" page="1" pageScale="1" pageWidth="827" pageHeight="1169" math="0" shadow="0"><root><mxCell id="0"/><mxCell id="1" parent="0"/><mxCell id="W8ZA6njR-4cCOnhQPtrj-3" style="edgeStyle=orthogonalEdgeStyle;rounded=0;orthogonalLoop=1;jettySize=auto;html=1;entryX=0.5;entryY=0;entryDx=0;entryDy=0;" parent="1" source="W8ZA6njR-4cCOnhQPtrj-1" target="W8ZA6njR-4cCOnhQPtrj-2" edge="1"><mxGeometry relative="1" as="geometry"/></mxCell><mxCell id="W8ZA6njR-4cCOnhQPtrj-1" value="User Action&lt;br&gt;Create Map" style="rounded=0;whiteSpace=wrap;html=1;" parent="1" vertex="1"><mxGeometry x="348" y="182" width="120" height="60" as="geometry"/></mxCell><mxCell id="3" style="edgeStyle=orthogonalEdgeStyle;rounded=0;orthogonalLoop=1;jettySize=auto;html=1;" parent="1" source="W8ZA6njR-4cCOnhQPtrj-2" target="W8ZA6njR-4cCOnhQPtrj-4" edge="1"><mxGeometry relative="1" as="geometry"/></mxCell><mxCell id="W8ZA6njR-4cCOnhQPtrj-2" value="Konstruktor&lt;br&gt;Map Object" style="rounded=0;whiteSpace=wrap;html=1;" parent="1" vertex="1"><mxGeometry x="348" y="292" width="120" height="60" as="geometry"/></mxCell><mxCell id="W8ZA6njR-4cCOnhQPtrj-36" style="edgeStyle=orthogonalEdgeStyle;rounded=0;orthogonalLoop=1;jettySize=auto;html=1;" parent="1" source="W8ZA6njR-4cCOnhQPtrj-4" target="W8ZA6njR-4cCOnhQPtrj-35" edge="1"><mxGeometry relative="1" as="geometry"/></mxCell><mxCell id="W8ZA6njR-4cCOnhQPtrj-4" value="Metoda&lt;br&gt;MainCrateMap" style="rounded=0;whiteSpace=wrap;html=1;" parent="1" vertex="1"><mxGeometry x="348" y="400" width="120" height="60" as="geometry"/></mxCell><mxCell id="W8ZA6njR-4cCOnhQPtrj-10" style="edgeStyle=orthogonalEdgeStyle;rounded=0;orthogonalLoop=1;jettySize=auto;html=1;" parent="1" source="W8ZA6njR-4cCOnhQPtrj-7" target="W8ZA6njR-4cCOnhQPtrj-9" edge="1"><mxGeometry relative="1" as="geometry"/></mxCell><mxCell id="W8ZA6njR-4cCOnhQPtrj-13" style="edgeStyle=orthogonalEdgeStyle;rounded=0;orthogonalLoop=1;jettySize=auto;html=1;entryX=0.5;entryY=0;entryDx=0;entryDy=0;" parent="1" source="W8ZA6njR-4cCOnhQPtrj-7" target="W8ZA6njR-4cCOnhQPtrj-16" edge="1"><mxGeometry relative="1" as="geometry"><mxPoint x="408" y="690" as="targetPoint"/></mxGeometry></mxCell><mxCell id="W8ZA6njR-4cCOnhQPtrj-7" value="Warunek&lt;br&gt;czy pierwsze&lt;br&gt;zdjecie" style="rhombus;whiteSpace=wrap;html=1;" parent="1" vertex="1"><mxGeometry x="368" y="590" width="80" height="80" as="geometry"/></mxCell><mxCell id="5" style="edgeStyle=orthogonalEdgeStyle;rounded=0;orthogonalLoop=1;jettySize=auto;html=1;entryX=0.5;entryY=0;entryDx=0;entryDy=0;" parent="1" source="W8ZA6njR-4cCOnhQPtrj-9" target="W8ZA6njR-4cCOnhQPtrj-26" edge="1"><mxGeometry relative="1" as="geometry"><Array as="points"><mxPoint x="554" y="800"/><mxPoint x="408" y="800"/></Array></mxGeometry></mxCell><mxCell id="W8ZA6njR-4cCOnhQPtrj-9" value="Metoda&lt;br&gt;First photo" style="rounded=0;whiteSpace=wrap;html=1;" parent="1" vertex="1"><mxGeometry x="494" y="600" width="120" height="60" as="geometry"/></mxCell><mxCell id="W8ZA6njR-4cCOnhQPtrj-14" value="Nie" style="text;html=1;strokeColor=none;fillColor=none;align=center;verticalAlign=middle;whiteSpace=wrap;rounded=0;" parent="1" vertex="1"><mxGeometry x="414" y="670" width="60" height="30" as="geometry"/></mxCell><mxCell id="W8ZA6njR-4cCOnhQPtrj-15" value="Tak" style="text;html=1;strokeColor=none;fillColor=none;align=center;verticalAlign=middle;whiteSpace=wrap;rounded=0;" parent="1" vertex="1"><mxGeometry x="440" y="600" width="60" height="30" as="geometry"/></mxCell><mxCell id="W8ZA6njR-4cCOnhQPtrj-27" style="edgeStyle=orthogonalEdgeStyle;rounded=0;orthogonalLoop=1;jettySize=auto;html=1;" parent="1" source="W8ZA6njR-4cCOnhQPtrj-16" target="W8ZA6njR-4cCOnhQPtrj-26" edge="1"><mxGeometry relative="1" as="geometry"/></mxCell><mxCell id="W8ZA6njR-4cCOnhQPtrj-16" value="Metoda&lt;br&gt;Oblicz Typ zdjęcia&lt;br&gt;i zrób zdjecie" style="rounded=0;whiteSpace=wrap;html=1;" parent="1" vertex="1"><mxGeometry x="348" y="710" width="120" height="60" as="geometry"/></mxCell><mxCell id="4" style="edgeStyle=orthogonalEdgeStyle;rounded=0;orthogonalLoop=1;jettySize=auto;html=1;entryX=0.5;entryY=0;entryDx=0;entryDy=0;" parent="1" source="W8ZA6njR-4cCOnhQPtrj-26" target="2" edge="1"><mxGeometry relative="1" as="geometry"/></mxCell><mxCell id="W8ZA6njR-4cCOnhQPtrj-26" value="Metoda&lt;br&gt;Oblicz Następna pozycje manipulatora" style="rounded=0;whiteSpace=wrap;html=1;" parent="1" vertex="1"><mxGeometry x="348" y="830" width="120" height="60" as="geometry"/></mxCell><mxCell id="W8ZA6njR-4cCOnhQPtrj-37" style="edgeStyle=orthogonalEdgeStyle;rounded=0;orthogonalLoop=1;jettySize=auto;html=1;entryX=0.5;entryY=0;entryDx=0;entryDy=0;" parent="1" source="W8ZA6njR-4cCOnhQPtrj-35" target="W8ZA6njR-4cCOnhQPtrj-7" edge="1"><mxGeometry relative="1" as="geometry"/></mxCell><mxCell id="7" style="edgeStyle=orthogonalEdgeStyle;rounded=0;orthogonalLoop=1;jettySize=auto;html=1;entryX=0.5;entryY=0;entryDx=0;entryDy=0;" parent="1" source="W8ZA6njR-4cCOnhQPtrj-35" target="W8ZA6njR-4cCOnhQPtrj-39" edge="1"><mxGeometry relative="1" as="geometry"/></mxCell><mxCell id="W8ZA6njR-4cCOnhQPtrj-35" value="Warunek&lt;br&gt;czy koniec" style="rhombus;whiteSpace=wrap;html=1;" parent="1" vertex="1"><mxGeometry x="368" y="485" width="80" height="80" as="geometry"/></mxCell><mxCell id="W8ZA6njR-4cCOnhQPtrj-38" value="Nie" style="text;html=1;strokeColor=none;fillColor=none;align=center;verticalAlign=middle;whiteSpace=wrap;rounded=0;" parent="1" vertex="1"><mxGeometry x="408" y="560" width="60" height="30" as="geometry"/></mxCell><mxCell id="W8ZA6njR-4cCOnhQPtrj-39" value="" style="ellipse;whiteSpace=wrap;html=1;aspect=fixed;" parent="1" vertex="1"><mxGeometry x="260" y="550" width="50" height="50" as="geometry"/></mxCell><mxCell id="W8ZA6njR-4cCOnhQPtrj-42" style="edgeStyle=orthogonalEdgeStyle;rounded=0;orthogonalLoop=1;jettySize=auto;html=1;" parent="1" source="W8ZA6njR-4cCOnhQPtrj-41" target="W8ZA6njR-4cCOnhQPtrj-1" edge="1"><mxGeometry relative="1" as="geometry"/></mxCell><mxCell id="W8ZA6njR-4cCOnhQPtrj-41" value="" style="ellipse;whiteSpace=wrap;html=1;aspect=fixed;" parent="1" vertex="1"><mxGeometry x="383" y="112" width="50" height="50" as="geometry"/></mxCell><mxCell id="W8ZA6njR-4cCOnhQPtrj-44" value="Tak" style="text;html=1;strokeColor=none;fillColor=none;align=center;verticalAlign=middle;whiteSpace=wrap;rounded=0;" parent="1" vertex="1"><mxGeometry x="323" y="493" width="60" height="30" as="geometry"/></mxCell><mxCell id="6" style="edgeStyle=orthogonalEdgeStyle;rounded=0;orthogonalLoop=1;jettySize=auto;html=1;entryX=0.5;entryY=0;entryDx=0;entryDy=0;" parent="1" source="2" target="W8ZA6njR-4cCOnhQPtrj-4" edge="1"><mxGeometry relative="1" as="geometry"><Array as="points"><mxPoint x="408" y="1020"/><mxPoint x="620" y="1020"/><mxPoint x="620" y="380"/><mxPoint x="408" y="380"/></Array></mxGeometry></mxCell><mxCell id="2" value="Metoda&lt;br&gt;Manipulator GO To" style="rounded=0;whiteSpace=wrap;html=1;" parent="1" vertex="1"><mxGeometry x="348" y="927" width="120" height="60" as="geometry"/></mxCell></root></mxGraphModel></diagram><diagram id="gJIvOOzpihQUX2qyMc5d" name="Konstruktor MAP"><mxGraphModel dx="1473" dy="804" grid="1" gridSize="10" guides="1" tooltips="1" connect="1" arrows="1" fold="1" page="1" pageScale="1" pageWidth="827" pageHeight="1169" math="0" shadow="0"><root><mxCell id="0"/><mxCell id="1" parent="0"/><mxCell id="ftR7KhuQIACw0ftiwJS7-1" style="edgeStyle=orthogonalEdgeStyle;rounded=0;orthogonalLoop=1;jettySize=auto;html=1;" parent="1" source="NaXnstlJSEweF601BDn3-1" target="NaXnstlJSEweF601BDn3-15" edge="1"><mxGeometry relative="1" as="geometry"/></mxCell><mxCell id="NaXnstlJSEweF601BDn3-1" value="" style="ellipse;whiteSpace=wrap;html=1;aspect=fixed;" parent="1" vertex="1"><mxGeometry x="-438" y="20" width="50" height="50" as="geometry"/></mxCell><mxCell id="NaXnstlJSEweF601BDn3-2" value="" style="ellipse;whiteSpace=wrap;html=1;aspect=fixed;" parent="1" vertex="1"><mxGeometry x="-438" y="1090" width="50" height="50" as="geometry"/></mxCell><mxCell id="ftR7KhuQIACw0ftiwJS7-2" style="edgeStyle=orthogonalEdgeStyle;rounded=0;orthogonalLoop=1;jettySize=auto;html=1;entryX=0.5;entryY=0;entryDx=0;entryDy=0;" parent="1" source="NaXnstlJSEweF601BDn3-15" target="NaXnstlJSEweF601BDn3-2" edge="1"><mxGeometry relative="1" as="geometry"/></mxCell><mxCell id="NaXnstlJSEweF601BDn3-15" value="Table" style="shape=table;startSize=30;container=1;collapsible=1;childLayout=tableLayout;fixedRows=1;rowLines=0;fontStyle=1;align=center;resizeLast=1;" parent="1" vertex="1"><mxGeometry x="-793" y="120" width="760" height="630" as="geometry"/></mxCell><mxCell id="NaXnstlJSEweF601BDn3-19" value="" style="shape=tableRow;horizontal=0;startSize=0;swimlaneHead=0;swimlaneBody=0;fillColor=none;collapsible=0;dropTarget=0;points=[[0,0.5],[1,0.5]];portConstraint=eastwest;top=0;left=0;right=0;bottom=1;" parent="NaXnstlJSEweF601BDn3-15" vertex="1"><mxGeometry y="30" width="760" height="30" as="geometry"/></mxCell><mxCell id="NaXnstlJSEweF601BDn3-20" value="Name" style="shape=partialRectangle;connectable=0;fillColor=none;top=0;left=0;bottom=0;right=0;fontStyle=1;overflow=hidden;" parent="NaXnstlJSEweF601BDn3-19" vertex="1"><mxGeometry width="130" height="30" as="geometry"><mxRectangle width="130" height="30" as="alternateBounds"/></mxGeometry></mxCell><mxCell id="NaXnstlJSEweF601BDn3-21" value="Value" style="shape=partialRectangle;connectable=0;fillColor=none;top=0;left=0;bottom=0;right=0;align=left;spacingLeft=6;fontStyle=5;overflow=hidden;" parent="NaXnstlJSEweF601BDn3-19" vertex="1"><mxGeometry x="130" width="630" height="30" as="geometry"><mxRectangle width="630" height="30" as="alternateBounds"/></mxGeometry></mxCell><mxCell id="NaXnstlJSEweF601BDn3-22" value="" style="shape=tableRow;horizontal=0;startSize=0;swimlaneHead=0;swimlaneBody=0;fillColor=none;collapsible=0;dropTarget=0;points=[[0,0.5],[1,0.5]];portConstraint=eastwest;top=0;left=0;right=0;bottom=0;" parent="NaXnstlJSEweF601BDn3-15" vertex="1"><mxGeometry y="60" width="760" height="30" as="geometry"/></mxCell><mxCell id="NaXnstlJSEweF601BDn3-23" value="master  " style="shape=partialRectangle;connectable=0;fillColor=none;top=0;left=0;bottom=0;right=0;editable=1;overflow=hidden;" parent="NaXnstlJSEweF601BDn3-22" vertex="1"><mxGeometry width="130" height="30" as="geometry"><mxRectangle width="130" height="30" as="alternateBounds"/></mxGeometry></mxCell><mxCell id="NaXnstlJSEweF601BDn3-24" value="Pointer to Master" style="shape=partialRectangle;connectable=0;fillColor=none;top=0;left=0;bottom=0;right=0;align=left;spacingLeft=6;overflow=hidden;" parent="NaXnstlJSEweF601BDn3-22" vertex="1"><mxGeometry x="130" width="630" height="30" as="geometry"><mxRectangle width="630" height="30" as="alternateBounds"/></mxGeometry></mxCell><mxCell id="NaXnstlJSEweF601BDn3-25" value="" style="shape=tableRow;horizontal=0;startSize=0;swimlaneHead=0;swimlaneBody=0;fillColor=none;collapsible=0;dropTarget=0;points=[[0,0.5],[1,0.5]];portConstraint=eastwest;top=0;left=0;right=0;bottom=0;" parent="NaXnstlJSEweF601BDn3-15" vertex="1"><mxGeometry y="90" width="760" height="30" as="geometry"/></mxCell><mxCell id="NaXnstlJSEweF601BDn3-26" value="manipulator" style="shape=partialRectangle;connectable=0;fillColor=none;top=0;left=0;bottom=0;right=0;editable=1;overflow=hidden;" parent="NaXnstlJSEweF601BDn3-25" vertex="1"><mxGeometry width="130" height="30" as="geometry"><mxRectangle width="130" height="30" as="alternateBounds"/></mxGeometry></mxCell><mxCell id="NaXnstlJSEweF601BDn3-27" value="Pointer to Manipulator" style="shape=partialRectangle;connectable=0;fillColor=none;top=0;left=0;bottom=0;right=0;align=left;spacingLeft=6;overflow=hidden;" parent="NaXnstlJSEweF601BDn3-25" vertex="1"><mxGeometry x="130" width="630" height="30" as="geometry"><mxRectangle width="630" height="30" as="alternateBounds"/></mxGeometry></mxCell><mxCell id="NaXnstlJSEweF601BDn3-28" value="" style="shape=tableRow;horizontal=0;startSize=0;swimlaneHead=0;swimlaneBody=0;fillColor=none;collapsible=0;dropTarget=0;points=[[0,0.5],[1,0.5]];portConstraint=eastwest;top=0;left=0;right=0;bottom=0;" parent="NaXnstlJSEweF601BDn3-15" vertex="1"><mxGeometry y="120" width="760" height="30" as="geometry"/></mxCell><mxCell id="NaXnstlJSEweF601BDn3-29" value="fild" style="shape=partialRectangle;connectable=0;fillColor=none;top=0;left=0;bottom=0;right=0;editable=1;overflow=hidden;" parent="NaXnstlJSEweF601BDn3-28" vertex="1"><mxGeometry width="130" height="30" as="geometry"><mxRectangle width="130" height="30" as="alternateBounds"/></mxGeometry></mxCell><mxCell id="NaXnstlJSEweF601BDn3-30" value="Table with paramiters of chosen by the user WorkFild&#10;&quot;Xmin&quot;, &quot;Xmax&quot;, &quot;Ymin&quot;, &quot;Ymax&quot;, &quot;fildName&quot;" style="shape=partialRectangle;connectable=0;fillColor=none;top=0;left=0;bottom=0;right=0;align=left;spacingLeft=6;overflow=hidden;" parent="NaXnstlJSEweF601BDn3-28" vertex="1"><mxGeometry x="130" width="630" height="30" as="geometry"><mxRectangle width="630" height="30" as="alternateBounds"/></mxGeometry></mxCell><mxCell id="NaXnstlJSEweF601BDn3-46" value="" style="shape=tableRow;horizontal=0;startSize=0;swimlaneHead=0;swimlaneBody=0;fillColor=none;collapsible=0;dropTarget=0;points=[[0,0.5],[1,0.5]];portConstraint=eastwest;top=0;left=0;right=0;bottom=0;" parent="NaXnstlJSEweF601BDn3-15" vertex="1"><mxGeometry y="150" width="760" height="30" as="geometry"/></mxCell><mxCell id="NaXnstlJSEweF601BDn3-47" value="x i y" style="shape=partialRectangle;connectable=0;fillColor=none;top=0;left=0;bottom=0;right=0;editable=1;overflow=hidden;" parent="NaXnstlJSEweF601BDn3-46" vertex="1"><mxGeometry width="130" height="30" as="geometry"><mxRectangle width="130" height="30" as="alternateBounds"/></mxGeometry></mxCell><mxCell id="NaXnstlJSEweF601BDn3-48" value="Values readed from config Fille conteins configured map resolution" style="shape=partialRectangle;connectable=0;fillColor=none;top=0;left=0;bottom=0;right=0;align=left;spacingLeft=6;overflow=hidden;" parent="NaXnstlJSEweF601BDn3-46" vertex="1"><mxGeometry x="130" width="630" height="30" as="geometry"><mxRectangle width="630" height="30" as="alternateBounds"/></mxGeometry></mxCell><mxCell id="NaXnstlJSEweF601BDn3-31" value="" style="shape=tableRow;horizontal=0;startSize=0;swimlaneHead=0;swimlaneBody=0;fillColor=none;collapsible=0;dropTarget=0;points=[[0,0.5],[1,0.5]];portConstraint=eastwest;top=0;left=0;right=0;bottom=0;" parent="NaXnstlJSEweF601BDn3-15" vertex="1"><mxGeometry y="180" width="760" height="30" as="geometry"/></mxCell><mxCell id="NaXnstlJSEweF601BDn3-32" value="dx i dy" style="shape=partialRectangle;connectable=0;fillColor=none;top=0;left=0;bottom=0;right=0;editable=1;overflow=hidden;" parent="NaXnstlJSEweF601BDn3-31" vertex="1"><mxGeometry width="130" height="30" as="geometry"><mxRectangle width="130" height="30" as="alternateBounds"/></mxGeometry></mxCell><mxCell id="NaXnstlJSEweF601BDn3-33" value="leangth of work FIlds in mm" style="shape=partialRectangle;connectable=0;fillColor=none;top=0;left=0;bottom=0;right=0;align=left;spacingLeft=6;overflow=hidden;" parent="NaXnstlJSEweF601BDn3-31" vertex="1"><mxGeometry x="130" width="630" height="30" as="geometry"><mxRectangle width="630" height="30" as="alternateBounds"/></mxGeometry></mxCell><mxCell id="NaXnstlJSEweF601BDn3-34" value="" style="shape=tableRow;horizontal=0;startSize=0;swimlaneHead=0;swimlaneBody=0;fillColor=none;collapsible=0;dropTarget=0;points=[[0,0.5],[1,0.5]];portConstraint=eastwest;top=0;left=0;right=0;bottom=0;" parent="NaXnstlJSEweF601BDn3-15" vertex="1"><mxGeometry y="210" width="760" height="30" as="geometry"/></mxCell><mxCell id="NaXnstlJSEweF601BDn3-35" value="xOffset i yOffset" style="shape=partialRectangle;connectable=0;fillColor=none;top=0;left=0;bottom=0;right=0;editable=1;overflow=hidden;" parent="NaXnstlJSEweF601BDn3-34" vertex="1"><mxGeometry width="130" height="30" as="geometry"><mxRectangle width="130" height="30" as="alternateBounds"/></mxGeometry></mxCell><mxCell id="NaXnstlJSEweF601BDn3-36" value="Values readed from config Fille allow to calculate from mm to pix'els" style="shape=partialRectangle;connectable=0;fillColor=none;top=0;left=0;bottom=0;right=0;align=left;spacingLeft=6;overflow=hidden;" parent="NaXnstlJSEweF601BDn3-34" vertex="1"><mxGeometry x="130" width="630" height="30" as="geometry"><mxRectangle width="630" height="30" as="alternateBounds"/></mxGeometry></mxCell><mxCell id="NaXnstlJSEweF601BDn3-37" value="" style="shape=tableRow;horizontal=0;startSize=0;swimlaneHead=0;swimlaneBody=0;fillColor=none;collapsible=0;dropTarget=0;points=[[0,0.5],[1,0.5]];portConstraint=eastwest;top=0;left=0;right=0;bottom=0;" parent="NaXnstlJSEweF601BDn3-15" vertex="1"><mxGeometry y="240" width="760" height="30" as="geometry"/></mxCell><mxCell id="NaXnstlJSEweF601BDn3-38" value="maxX i maxY" style="shape=partialRectangle;connectable=0;fillColor=none;top=0;left=0;bottom=0;right=0;editable=1;overflow=hidden;" parent="NaXnstlJSEweF601BDn3-37" vertex="1"><mxGeometry width="130" height="30" as="geometry"><mxRectangle width="130" height="30" as="alternateBounds"/></mxGeometry></mxCell><mxCell id="NaXnstlJSEweF601BDn3-39" value="Max and minimal value of full workfilld in pix" style="shape=partialRectangle;connectable=0;fillColor=none;top=0;left=0;bottom=0;right=0;align=left;spacingLeft=6;overflow=hidden;" parent="NaXnstlJSEweF601BDn3-37" vertex="1"><mxGeometry x="130" width="630" height="30" as="geometry"><mxRectangle width="630" height="30" as="alternateBounds"/></mxGeometry></mxCell><mxCell id="NaXnstlJSEweF601BDn3-40" value="" style="shape=tableRow;horizontal=0;startSize=0;swimlaneHead=0;swimlaneBody=0;fillColor=none;collapsible=0;dropTarget=0;points=[[0,0.5],[1,0.5]];portConstraint=eastwest;top=0;left=0;right=0;bottom=0;" parent="NaXnstlJSEweF601BDn3-15" vertex="1"><mxGeometry y="270" width="760" height="30" as="geometry"/></mxCell><mxCell id="NaXnstlJSEweF601BDn3-41" value="scalX i sclaY" style="shape=partialRectangle;connectable=0;fillColor=none;top=0;left=0;bottom=0;right=0;editable=1;overflow=hidden;" parent="NaXnstlJSEweF601BDn3-40" vertex="1"><mxGeometry width="130" height="30" as="geometry"><mxRectangle width="130" height="30" as="alternateBounds"/></mxGeometry></mxCell><mxCell id="NaXnstlJSEweF601BDn3-42" value="Skale that allow to calculate values from max workfilld in pix to configured map resolution" style="shape=partialRectangle;connectable=0;fillColor=none;top=0;left=0;bottom=0;right=0;align=left;spacingLeft=6;overflow=hidden;" parent="NaXnstlJSEweF601BDn3-40" vertex="1"><mxGeometry x="130" width="630" height="30" as="geometry"><mxRectangle width="630" height="30" as="alternateBounds"/></mxGeometry></mxCell><mxCell id="NaXnstlJSEweF601BDn3-76" value="" style="shape=tableRow;horizontal=0;startSize=0;swimlaneHead=0;swimlaneBody=0;fillColor=none;collapsible=0;dropTarget=0;points=[[0,0.5],[1,0.5]];portConstraint=eastwest;top=0;left=0;right=0;bottom=0;" parent="NaXnstlJSEweF601BDn3-15" vertex="1"><mxGeometry y="300" width="760" height="30" as="geometry"/></mxCell><mxCell id="NaXnstlJSEweF601BDn3-77" value="cmdX i cmdY" style="shape=partialRectangle;connectable=0;fillColor=none;top=0;left=0;bottom=0;right=0;editable=1;overflow=hidden;" parent="NaXnstlJSEweF601BDn3-76" vertex="1"><mxGeometry width="130" height="30" as="geometry"><mxRectangle width="130" height="30" as="alternateBounds"/></mxGeometry></mxCell><mxCell id="NaXnstlJSEweF601BDn3-78" value=" valuses of size of scaleddown camera capture (real size on map)" style="shape=partialRectangle;connectable=0;fillColor=none;top=0;left=0;bottom=0;right=0;align=left;spacingLeft=6;overflow=hidden;" parent="NaXnstlJSEweF601BDn3-76" vertex="1"><mxGeometry x="130" width="630" height="30" as="geometry"><mxRectangle width="630" height="30" as="alternateBounds"/></mxGeometry></mxCell><mxCell id="NaXnstlJSEweF601BDn3-43" value="" style="shape=tableRow;horizontal=0;startSize=0;swimlaneHead=0;swimlaneBody=0;fillColor=none;collapsible=0;dropTarget=0;points=[[0,0.5],[1,0.5]];portConstraint=eastwest;top=0;left=0;right=0;bottom=0;" parent="NaXnstlJSEweF601BDn3-15" vertex="1"><mxGeometry y="330" width="760" height="30" as="geometry"/></mxCell><mxCell id="NaXnstlJSEweF601BDn3-44" value="dim" style="shape=partialRectangle;connectable=0;fillColor=none;top=0;left=0;bottom=0;right=0;editable=1;overflow=hidden;" parent="NaXnstlJSEweF601BDn3-43" vertex="1"><mxGeometry width="130" height="30" as="geometry"><mxRectangle width="130" height="30" as="alternateBounds"/></mxGeometry></mxCell><mxCell id="NaXnstlJSEweF601BDn3-45" value="touple conteinign  valuses of size of scaleddown camera capture (real size on map)" style="shape=partialRectangle;connectable=0;fillColor=none;top=0;left=0;bottom=0;right=0;align=left;spacingLeft=6;overflow=hidden;" parent="NaXnstlJSEweF601BDn3-43" vertex="1"><mxGeometry x="130" width="630" height="30" as="geometry"><mxRectangle width="630" height="30" as="alternateBounds"/></mxGeometry></mxCell><mxCell id="NaXnstlJSEweF601BDn3-49" value="" style="shape=tableRow;horizontal=0;startSize=0;swimlaneHead=0;swimlaneBody=0;fillColor=none;collapsible=0;dropTarget=0;points=[[0,0.5],[1,0.5]];portConstraint=eastwest;top=0;left=0;right=0;bottom=0;" parent="NaXnstlJSEweF601BDn3-15" vertex="1"><mxGeometry y="360" width="760" height="30" as="geometry"/></mxCell><mxCell id="NaXnstlJSEweF601BDn3-50" value="_photoCount" style="shape=partialRectangle;connectable=0;fillColor=none;top=0;left=0;bottom=0;right=0;editable=1;overflow=hidden;" parent="NaXnstlJSEweF601BDn3-49" vertex="1"><mxGeometry width="130" height="30" as="geometry"><mxRectangle width="130" height="30" as="alternateBounds"/></mxGeometry></mxCell><mxCell id="NaXnstlJSEweF601BDn3-51" value="Conteint unmutable nambers of x and y freams that will be on map" style="shape=partialRectangle;connectable=0;fillColor=none;top=0;left=0;bottom=0;right=0;align=left;spacingLeft=6;overflow=hidden;" parent="NaXnstlJSEweF601BDn3-49" vertex="1"><mxGeometry x="130" width="630" height="30" as="geometry"><mxRectangle width="630" height="30" as="alternateBounds"/></mxGeometry></mxCell><mxCell id="NaXnstlJSEweF601BDn3-52" value="" style="shape=tableRow;horizontal=0;startSize=0;swimlaneHead=0;swimlaneBody=0;fillColor=none;collapsible=0;dropTarget=0;points=[[0,0.5],[1,0.5]];portConstraint=eastwest;top=0;left=0;right=0;bottom=0;" parent="NaXnstlJSEweF601BDn3-15" vertex="1"><mxGeometry y="390" width="760" height="30" as="geometry"/></mxCell><mxCell id="NaXnstlJSEweF601BDn3-53" value="photoCount" style="shape=partialRectangle;connectable=0;fillColor=none;top=0;left=0;bottom=0;right=0;editable=1;overflow=hidden;" parent="NaXnstlJSEweF601BDn3-52" vertex="1"><mxGeometry width="130" height="30" as="geometry"><mxRectangle width="130" height="30" as="alternateBounds"/></mxGeometry></mxCell><mxCell id="NaXnstlJSEweF601BDn3-54" value="Conteins number of curent fream" style="shape=partialRectangle;connectable=0;fillColor=none;top=0;left=0;bottom=0;right=0;align=left;spacingLeft=6;overflow=hidden;" parent="NaXnstlJSEweF601BDn3-52" vertex="1"><mxGeometry x="130" width="630" height="30" as="geometry"><mxRectangle width="630" height="30" as="alternateBounds"/></mxGeometry></mxCell><mxCell id="NaXnstlJSEweF601BDn3-55" value="" style="shape=tableRow;horizontal=0;startSize=0;swimlaneHead=0;swimlaneBody=0;fillColor=none;collapsible=0;dropTarget=0;points=[[0,0.5],[1,0.5]];portConstraint=eastwest;top=0;left=0;right=0;bottom=0;" parent="NaXnstlJSEweF601BDn3-15" vertex="1"><mxGeometry y="420" width="760" height="30" as="geometry"/></mxCell><mxCell id="NaXnstlJSEweF601BDn3-56" value="movmentMap" style="shape=partialRectangle;connectable=0;fillColor=none;top=0;left=0;bottom=0;right=0;editable=1;overflow=hidden;" parent="NaXnstlJSEweF601BDn3-55" vertex="1"><mxGeometry width="130" height="30" as="geometry"><mxRectangle width="130" height="30" as="alternateBounds"/></mxGeometry></mxCell><mxCell id="NaXnstlJSEweF601BDn3-57" value="Matrix with values of disire manipulator cords" style="shape=partialRectangle;connectable=0;fillColor=none;top=0;left=0;bottom=0;right=0;align=left;spacingLeft=6;overflow=hidden;" parent="NaXnstlJSEweF601BDn3-55" vertex="1"><mxGeometry x="130" width="630" height="30" as="geometry"><mxRectangle width="630" height="30" as="alternateBounds"/></mxGeometry></mxCell><mxCell id="NaXnstlJSEweF601BDn3-58" value="" style="shape=tableRow;horizontal=0;startSize=0;swimlaneHead=0;swimlaneBody=0;fillColor=none;collapsible=0;dropTarget=0;points=[[0,0.5],[1,0.5]];portConstraint=eastwest;top=0;left=0;right=0;bottom=0;" parent="NaXnstlJSEweF601BDn3-15" vertex="1"><mxGeometry y="450" width="760" height="30" as="geometry"/></mxCell><mxCell id="NaXnstlJSEweF601BDn3-59" value="mapDirection" style="shape=partialRectangle;connectable=0;fillColor=none;top=0;left=0;bottom=0;right=0;editable=1;overflow=hidden;" parent="NaXnstlJSEweF601BDn3-58" vertex="1"><mxGeometry width="130" height="30" as="geometry"><mxRectangle width="130" height="30" as="alternateBounds"/></mxGeometry></mxCell><mxCell id="NaXnstlJSEweF601BDn3-60" value="Conteins curent direction that map will be extended" style="shape=partialRectangle;connectable=0;fillColor=none;top=0;left=0;bottom=0;right=0;align=left;spacingLeft=6;overflow=hidden;" parent="NaXnstlJSEweF601BDn3-58" vertex="1"><mxGeometry x="130" width="630" height="30" as="geometry"><mxRectangle width="630" height="30" as="alternateBounds"/></mxGeometry></mxCell><mxCell id="NaXnstlJSEweF601BDn3-61" value="" style="shape=tableRow;horizontal=0;startSize=0;swimlaneHead=0;swimlaneBody=0;fillColor=none;collapsible=0;dropTarget=0;points=[[0,0.5],[1,0.5]];portConstraint=eastwest;top=0;left=0;right=0;bottom=0;" parent="NaXnstlJSEweF601BDn3-15" vertex="1"><mxGeometry y="480" width="760" height="30" as="geometry"/></mxCell><mxCell id="NaXnstlJSEweF601BDn3-62" value="mapEnd" style="shape=partialRectangle;connectable=0;fillColor=none;top=0;left=0;bottom=0;right=0;editable=1;overflow=hidden;" parent="NaXnstlJSEweF601BDn3-61" vertex="1"><mxGeometry width="130" height="30" as="geometry"><mxRectangle width="130" height="30" as="alternateBounds"/></mxGeometry></mxCell><mxCell id="NaXnstlJSEweF601BDn3-63" value="If True Map is complited" style="shape=partialRectangle;connectable=0;fillColor=none;top=0;left=0;bottom=0;right=0;align=left;spacingLeft=6;overflow=hidden;" parent="NaXnstlJSEweF601BDn3-61" vertex="1"><mxGeometry x="130" width="630" height="30" as="geometry"><mxRectangle width="630" height="30" as="alternateBounds"/></mxGeometry></mxCell><mxCell id="NaXnstlJSEweF601BDn3-64" value="" style="shape=tableRow;horizontal=0;startSize=0;swimlaneHead=0;swimlaneBody=0;fillColor=none;collapsible=0;dropTarget=0;points=[[0,0.5],[1,0.5]];portConstraint=eastwest;top=0;left=0;right=0;bottom=0;" parent="NaXnstlJSEweF601BDn3-15" vertex="1"><mxGeometry y="510" width="760" height="30" as="geometry"/></mxCell><mxCell id="NaXnstlJSEweF601BDn3-65" value="" style="shape=partialRectangle;connectable=0;fillColor=none;top=0;left=0;bottom=0;right=0;editable=1;overflow=hidden;" parent="NaXnstlJSEweF601BDn3-64" vertex="1"><mxGeometry width="130" height="30" as="geometry"><mxRectangle width="130" height="30" as="alternateBounds"/></mxGeometry></mxCell><mxCell id="NaXnstlJSEweF601BDn3-66" value="Row 4" style="shape=partialRectangle;connectable=0;fillColor=none;top=0;left=0;bottom=0;right=0;align=left;spacingLeft=6;overflow=hidden;" parent="NaXnstlJSEweF601BDn3-64" vertex="1"><mxGeometry x="130" width="630" height="30" as="geometry"><mxRectangle width="630" height="30" as="alternateBounds"/></mxGeometry></mxCell><mxCell id="NaXnstlJSEweF601BDn3-67" value="" style="shape=tableRow;horizontal=0;startSize=0;swimlaneHead=0;swimlaneBody=0;fillColor=none;collapsible=0;dropTarget=0;points=[[0,0.5],[1,0.5]];portConstraint=eastwest;top=0;left=0;right=0;bottom=0;" parent="NaXnstlJSEweF601BDn3-15" vertex="1"><mxGeometry y="540" width="760" height="30" as="geometry"/></mxCell><mxCell id="NaXnstlJSEweF601BDn3-68" value="" style="shape=partialRectangle;connectable=0;fillColor=none;top=0;left=0;bottom=0;right=0;editable=1;overflow=hidden;" parent="NaXnstlJSEweF601BDn3-67" vertex="1"><mxGeometry width="130" height="30" as="geometry"><mxRectangle width="130" height="30" as="alternateBounds"/></mxGeometry></mxCell><mxCell id="NaXnstlJSEweF601BDn3-69" value="Row 4" style="shape=partialRectangle;connectable=0;fillColor=none;top=0;left=0;bottom=0;right=0;align=left;spacingLeft=6;overflow=hidden;" parent="NaXnstlJSEweF601BDn3-67" vertex="1"><mxGeometry x="130" width="630" height="30" as="geometry"><mxRectangle width="630" height="30" as="alternateBounds"/></mxGeometry></mxCell><mxCell id="NaXnstlJSEweF601BDn3-70" value="" style="shape=tableRow;horizontal=0;startSize=0;swimlaneHead=0;swimlaneBody=0;fillColor=none;collapsible=0;dropTarget=0;points=[[0,0.5],[1,0.5]];portConstraint=eastwest;top=0;left=0;right=0;bottom=0;" parent="NaXnstlJSEweF601BDn3-15" vertex="1"><mxGeometry y="570" width="760" height="30" as="geometry"/></mxCell><mxCell id="NaXnstlJSEweF601BDn3-71" value="" style="shape=partialRectangle;connectable=0;fillColor=none;top=0;left=0;bottom=0;right=0;editable=1;overflow=hidden;" parent="NaXnstlJSEweF601BDn3-70" vertex="1"><mxGeometry width="130" height="30" as="geometry"><mxRectangle width="130" height="30" as="alternateBounds"/></mxGeometry></mxCell><mxCell id="NaXnstlJSEweF601BDn3-72" value="Row 4" style="shape=partialRectangle;connectable=0;fillColor=none;top=0;left=0;bottom=0;right=0;align=left;spacingLeft=6;overflow=hidden;" parent="NaXnstlJSEweF601BDn3-70" vertex="1"><mxGeometry x="130" width="630" height="30" as="geometry"><mxRectangle width="630" height="30" as="alternateBounds"/></mxGeometry></mxCell><mxCell id="NaXnstlJSEweF601BDn3-73" value="" style="shape=tableRow;horizontal=0;startSize=0;swimlaneHead=0;swimlaneBody=0;fillColor=none;collapsible=0;dropTarget=0;points=[[0,0.5],[1,0.5]];portConstraint=eastwest;top=0;left=0;right=0;bottom=0;" parent="NaXnstlJSEweF601BDn3-15" vertex="1"><mxGeometry y="600" width="760" height="30" as="geometry"/></mxCell><mxCell id="NaXnstlJSEweF601BDn3-74" value="" style="shape=partialRectangle;connectable=0;fillColor=none;top=0;left=0;bottom=0;right=0;editable=1;overflow=hidden;" parent="NaXnstlJSEweF601BDn3-73" vertex="1"><mxGeometry width="130" height="30" as="geometry"><mxRectangle width="130" height="30" as="alternateBounds"/></mxGeometry></mxCell><mxCell id="NaXnstlJSEweF601BDn3-75" value="Row 4" style="shape=partialRectangle;connectable=0;fillColor=none;top=0;left=0;bottom=0;right=0;align=left;spacingLeft=6;overflow=hidden;" parent="NaXnstlJSEweF601BDn3-73" vertex="1"><mxGeometry x="130" width="630" height="30" as="geometry"><mxRectangle width="630" height="30" as="alternateBounds"/></mxGeometry></mxCell></root></mxGraphModel></diagram><diagram id="ia9b6LHI9ECGiMp3JUFr" name="Oblicz Typ zdjęcia"><mxGraphModel dx="1473" dy="654" grid="1" gridSize="10" guides="1" tooltips="1" connect="1" arrows="1" fold="1" page="1" pageScale="1" pageWidth="827" pageHeight="1169" math="0" shadow="0"><root><mxCell id="0"/><mxCell id="1" parent="0"/><mxCell id="HUayzMHF1jjpRH7X-MLb-19" style="edgeStyle=orthogonalEdgeStyle;rounded=0;orthogonalLoop=1;jettySize=auto;html=1;entryX=0.5;entryY=0;entryDx=0;entryDy=0;" parent="1" source="HUayzMHF1jjpRH7X-MLb-1" target="HUayzMHF1jjpRH7X-MLb-16" edge="1"><mxGeometry relative="1" as="geometry"/></mxCell><mxCell id="HUayzMHF1jjpRH7X-MLb-1" value="" style="ellipse;whiteSpace=wrap;html=1;aspect=fixed;" parent="1" vertex="1"><mxGeometry x="-438" y="30" width="50" height="50" as="geometry"/></mxCell><mxCell id="HUayzMHF1jjpRH7X-MLb-2" value="Typy zdjec" style="swimlane;fontStyle=0;childLayout=stackLayout;horizontal=1;startSize=30;horizontalStack=0;resizeParent=1;resizeParentMax=0;resizeLast=0;collapsible=1;marginBottom=0;whiteSpace=wrap;html=1;" parent="1" vertex="1" collapsed="1"><mxGeometry x="-800" y="40" width="100" height="30" as="geometry"><mxRectangle x="-170" y="50" width="140" height="210" as="alternateBounds"/></mxGeometry></mxCell><mxCell id="HUayzMHF1jjpRH7X-MLb-3" value="Full" style="text;strokeColor=none;fillColor=none;align=left;verticalAlign=middle;spacingLeft=4;spacingRight=4;overflow=hidden;points=[[0,0.5],[1,0.5]];portConstraint=eastwest;rotatable=0;whiteSpace=wrap;html=1;" parent="HUayzMHF1jjpRH7X-MLb-2" vertex="1"><mxGeometry y="30" width="140" height="30" as="geometry"/></mxCell><mxCell id="HUayzMHF1jjpRH7X-MLb-4" value="botom" style="text;strokeColor=none;fillColor=none;align=left;verticalAlign=middle;spacingLeft=4;spacingRight=4;overflow=hidden;points=[[0,0.5],[1,0.5]];portConstraint=eastwest;rotatable=0;whiteSpace=wrap;html=1;" parent="HUayzMHF1jjpRH7X-MLb-2" vertex="1"><mxGeometry y="60" width="140" height="30" as="geometry"/></mxCell><mxCell id="HUayzMHF1jjpRH7X-MLb-5" value="botom left" style="text;strokeColor=none;fillColor=none;align=left;verticalAlign=middle;spacingLeft=4;spacingRight=4;overflow=hidden;points=[[0,0.5],[1,0.5]];portConstraint=eastwest;rotatable=0;whiteSpace=wrap;html=1;" parent="HUayzMHF1jjpRH7X-MLb-2" vertex="1"><mxGeometry y="90" width="140" height="30" as="geometry"/></mxCell><mxCell id="HUayzMHF1jjpRH7X-MLb-6" value="botom right" style="text;strokeColor=none;fillColor=none;align=left;verticalAlign=middle;spacingLeft=4;spacingRight=4;overflow=hidden;points=[[0,0.5],[1,0.5]];portConstraint=eastwest;rotatable=0;whiteSpace=wrap;html=1;" parent="HUayzMHF1jjpRH7X-MLb-2" vertex="1"><mxGeometry y="120" width="140" height="30" as="geometry"/></mxCell><mxCell id="HUayzMHF1jjpRH7X-MLb-7" value="left" style="text;strokeColor=none;fillColor=none;align=left;verticalAlign=middle;spacingLeft=4;spacingRight=4;overflow=hidden;points=[[0,0.5],[1,0.5]];portConstraint=eastwest;rotatable=0;whiteSpace=wrap;html=1;" parent="HUayzMHF1jjpRH7X-MLb-2" vertex="1"><mxGeometry y="150" width="140" height="30" as="geometry"/></mxCell><mxCell id="HUayzMHF1jjpRH7X-MLb-8" value="right" style="text;strokeColor=none;fillColor=none;align=left;verticalAlign=middle;spacingLeft=4;spacingRight=4;overflow=hidden;points=[[0,0.5],[1,0.5]];portConstraint=eastwest;rotatable=0;whiteSpace=wrap;html=1;" parent="HUayzMHF1jjpRH7X-MLb-2" vertex="1"><mxGeometry y="180" width="140" height="30" as="geometry"/></mxCell><mxCell id="HUayzMHF1jjpRH7X-MLb-39" style="edgeStyle=orthogonalEdgeStyle;rounded=0;orthogonalLoop=1;jettySize=auto;html=1;entryX=0.5;entryY=0;entryDx=0;entryDy=0;" parent="1" source="HUayzMHF1jjpRH7X-MLb-10" target="HUayzMHF1jjpRH7X-MLb-38" edge="1"><mxGeometry relative="1" as="geometry"><Array as="points"><mxPoint x="-630" y="640"/><mxPoint x="-413" y="640"/></Array></mxGeometry></mxCell><mxCell id="HUayzMHF1jjpRH7X-MLb-10" value="Full" style="rounded=0;whiteSpace=wrap;html=1;" parent="1" vertex="1"><mxGeometry x="-690" y="400" width="120" height="60" as="geometry"/></mxCell><mxCell id="HUayzMHF1jjpRH7X-MLb-41" style="edgeStyle=orthogonalEdgeStyle;rounded=0;orthogonalLoop=1;jettySize=auto;html=1;entryX=0.5;entryY=0;entryDx=0;entryDy=0;" parent="1" source="HUayzMHF1jjpRH7X-MLb-11" target="HUayzMHF1jjpRH7X-MLb-38" edge="1"><mxGeometry relative="1" as="geometry"><Array as="points"><mxPoint x="-200" y="640"/><mxPoint x="-413" y="640"/></Array></mxGeometry></mxCell><mxCell id="HUayzMHF1jjpRH7X-MLb-11" value="Bottom" style="rounded=0;whiteSpace=wrap;html=1;" parent="1" vertex="1"><mxGeometry x="-260" y="400" width="120" height="60" as="geometry"/></mxCell><mxCell id="Mh3d9rxs8CRbtTkJ0BpL-2" style="edgeStyle=orthogonalEdgeStyle;rounded=0;orthogonalLoop=1;jettySize=auto;html=1;entryX=0.5;entryY=0;entryDx=0;entryDy=0;" parent="1" source="HUayzMHF1jjpRH7X-MLb-12" target="HUayzMHF1jjpRH7X-MLb-38" edge="1"><mxGeometry relative="1" as="geometry"><Array as="points"><mxPoint x="-498" y="640"/><mxPoint x="-413" y="640"/></Array></mxGeometry></mxCell><mxCell id="HUayzMHF1jjpRH7X-MLb-12" value="Left" style="rounded=0;whiteSpace=wrap;html=1;" parent="1" vertex="1"><mxGeometry x="-558" y="400" width="120" height="60" as="geometry"/></mxCell><mxCell id="Mh3d9rxs8CRbtTkJ0BpL-3" style="edgeStyle=orthogonalEdgeStyle;rounded=0;orthogonalLoop=1;jettySize=auto;html=1;" parent="1" source="HUayzMHF1jjpRH7X-MLb-13" target="HUayzMHF1jjpRH7X-MLb-38" edge="1"><mxGeometry relative="1" as="geometry"><Array as="points"><mxPoint x="-760" y="640"/><mxPoint x="-413" y="640"/></Array></mxGeometry></mxCell><mxCell id="HUayzMHF1jjpRH7X-MLb-13" value="Right" style="rounded=0;whiteSpace=wrap;html=1;" parent="1" vertex="1"><mxGeometry x="-820" y="400" width="120" height="60" as="geometry"/></mxCell><mxCell id="Mh3d9rxs8CRbtTkJ0BpL-4" style="edgeStyle=orthogonalEdgeStyle;rounded=0;orthogonalLoop=1;jettySize=auto;html=1;" parent="1" source="HUayzMHF1jjpRH7X-MLb-14" target="HUayzMHF1jjpRH7X-MLb-38" edge="1"><mxGeometry relative="1" as="geometry"><Array as="points"><mxPoint x="-70" y="640"/><mxPoint x="-413" y="640"/></Array></mxGeometry></mxCell><mxCell id="HUayzMHF1jjpRH7X-MLb-14" value="Bottom Left" style="rounded=0;whiteSpace=wrap;html=1;" parent="1" vertex="1"><mxGeometry x="-130" y="400" width="120" height="60" as="geometry"/></mxCell><mxCell id="Mh3d9rxs8CRbtTkJ0BpL-1" style="edgeStyle=orthogonalEdgeStyle;rounded=0;orthogonalLoop=1;jettySize=auto;html=1;entryX=0.5;entryY=0;entryDx=0;entryDy=0;" parent="1" source="HUayzMHF1jjpRH7X-MLb-15" target="HUayzMHF1jjpRH7X-MLb-38" edge="1"><mxGeometry relative="1" as="geometry"><Array as="points"><mxPoint x="-328" y="640"/><mxPoint x="-413" y="640"/></Array></mxGeometry></mxCell><mxCell id="HUayzMHF1jjpRH7X-MLb-15" value="Bottom right" style="rounded=0;whiteSpace=wrap;html=1;" parent="1" vertex="1"><mxGeometry x="-388" y="400" width="120" height="60" as="geometry"/></mxCell><mxCell id="HUayzMHF1jjpRH7X-MLb-23" style="edgeStyle=orthogonalEdgeStyle;rounded=0;orthogonalLoop=1;jettySize=auto;html=1;entryX=0.5;entryY=0;entryDx=0;entryDy=0;" parent="1" source="HUayzMHF1jjpRH7X-MLb-16" target="HUayzMHF1jjpRH7X-MLb-21" edge="1"><mxGeometry relative="1" as="geometry"><Array as="points"><mxPoint x="-200" y="180"/></Array></mxGeometry></mxCell><mxCell id="HUayzMHF1jjpRH7X-MLb-26" style="edgeStyle=orthogonalEdgeStyle;rounded=0;orthogonalLoop=1;jettySize=auto;html=1;entryX=0.5;entryY=0;entryDx=0;entryDy=0;" parent="1" source="HUayzMHF1jjpRH7X-MLb-16" target="HUayzMHF1jjpRH7X-MLb-20" edge="1"><mxGeometry relative="1" as="geometry"><Array as="points"><mxPoint x="-630" y="180"/></Array></mxGeometry></mxCell><mxCell id="HUayzMHF1jjpRH7X-MLb-16" value="Czy bottom" style="rhombus;whiteSpace=wrap;html=1;" parent="1" vertex="1"><mxGeometry x="-453" y="140" width="80" height="80" as="geometry"/></mxCell><mxCell id="HUayzMHF1jjpRH7X-MLb-17" value="&lt;pre style=&quot;font-family: &amp;quot;JetBrains Mono&amp;quot;, monospace;&quot;&gt;photoCount[0] == _photoCount[0]&lt;/pre&gt;" style="whiteSpace=wrap;html=1;rounded=1;arcSize=50;align=center;verticalAlign=middle;strokeWidth=1;autosize=1;spacing=4;treeFolding=1;treeMoving=1;newEdgeStyle={&quot;edgeStyle&quot;:&quot;entityRelationEdgeStyle&quot;,&quot;startArrow&quot;:&quot;none&quot;,&quot;endArrow&quot;:&quot;none&quot;,&quot;segment&quot;:10,&quot;curved&quot;:1,&quot;sourcePerimeterSpacing&quot;:0,&quot;targetPerimeterSpacing&quot;:0};direction=west;" parent="1" vertex="1"><mxGeometry x="-340" y="90" width="250" height="60" as="geometry"/></mxCell><mxCell id="HUayzMHF1jjpRH7X-MLb-18" value="" style="edgeStyle=entityRelationEdgeStyle;startArrow=none;endArrow=none;segment=10;curved=1;sourcePerimeterSpacing=0;targetPerimeterSpacing=0;rounded=0;" parent="1" target="HUayzMHF1jjpRH7X-MLb-17" edge="1"><mxGeometry relative="1" as="geometry"><mxPoint x="-388" y="162" as="sourcePoint"/></mxGeometry></mxCell><mxCell id="HUayzMHF1jjpRH7X-MLb-30" style="edgeStyle=orthogonalEdgeStyle;rounded=0;orthogonalLoop=1;jettySize=auto;html=1;" parent="1" source="HUayzMHF1jjpRH7X-MLb-20" target="HUayzMHF1jjpRH7X-MLb-12" edge="1"><mxGeometry relative="1" as="geometry"/></mxCell><mxCell id="HUayzMHF1jjpRH7X-MLb-31" style="edgeStyle=orthogonalEdgeStyle;rounded=0;orthogonalLoop=1;jettySize=auto;html=1;entryX=0.5;entryY=0;entryDx=0;entryDy=0;" parent="1" source="HUayzMHF1jjpRH7X-MLb-20" target="HUayzMHF1jjpRH7X-MLb-10" edge="1"><mxGeometry relative="1" as="geometry"/></mxCell><mxCell id="HUayzMHF1jjpRH7X-MLb-32" style="edgeStyle=orthogonalEdgeStyle;rounded=0;orthogonalLoop=1;jettySize=auto;html=1;" parent="1" source="HUayzMHF1jjpRH7X-MLb-20" edge="1"><mxGeometry relative="1" as="geometry"><mxPoint x="-760" y="400" as="targetPoint"/></mxGeometry></mxCell><mxCell id="HUayzMHF1jjpRH7X-MLb-20" value="" style="rhombus;whiteSpace=wrap;html=1;" parent="1" vertex="1"><mxGeometry x="-670" y="250" width="80" height="80" as="geometry"/></mxCell><mxCell id="HUayzMHF1jjpRH7X-MLb-27" style="edgeStyle=orthogonalEdgeStyle;rounded=0;orthogonalLoop=1;jettySize=auto;html=1;" parent="1" source="HUayzMHF1jjpRH7X-MLb-21" target="HUayzMHF1jjpRH7X-MLb-15" edge="1"><mxGeometry relative="1" as="geometry"/></mxCell><mxCell id="HUayzMHF1jjpRH7X-MLb-28" style="edgeStyle=orthogonalEdgeStyle;rounded=0;orthogonalLoop=1;jettySize=auto;html=1;" parent="1" source="HUayzMHF1jjpRH7X-MLb-21" target="HUayzMHF1jjpRH7X-MLb-11" edge="1"><mxGeometry relative="1" as="geometry"/></mxCell><mxCell id="HUayzMHF1jjpRH7X-MLb-29" style="edgeStyle=orthogonalEdgeStyle;rounded=0;orthogonalLoop=1;jettySize=auto;html=1;" parent="1" source="HUayzMHF1jjpRH7X-MLb-21" target="HUayzMHF1jjpRH7X-MLb-14" edge="1"><mxGeometry relative="1" as="geometry"/></mxCell><mxCell id="HUayzMHF1jjpRH7X-MLb-21" value="" style="rhombus;whiteSpace=wrap;html=1;" parent="1" vertex="1"><mxGeometry x="-240" y="250" width="80" height="80" as="geometry"/></mxCell><mxCell id="HUayzMHF1jjpRH7X-MLb-24" value="Yes" style="text;html=1;strokeColor=none;fillColor=none;align=center;verticalAlign=middle;whiteSpace=wrap;rounded=0;" parent="1" vertex="1"><mxGeometry x="-373" y="150" width="60" height="30" as="geometry"/></mxCell><mxCell id="HUayzMHF1jjpRH7X-MLb-25" value="No" style="text;html=1;strokeColor=none;fillColor=none;align=center;verticalAlign=middle;whiteSpace=wrap;rounded=0;" parent="1" vertex="1"><mxGeometry x="-513" y="150" width="60" height="30" as="geometry"/></mxCell><mxCell id="HUayzMHF1jjpRH7X-MLb-33" value="&lt;pre style=&quot;font-family: &amp;quot;JetBrains Mono&amp;quot;, monospace;&quot;&gt;photoCount[1] == 0&lt;/pre&gt;" style="text;html=1;strokeColor=none;fillColor=none;align=center;verticalAlign=middle;whiteSpace=wrap;rounded=0;" parent="1" vertex="1"><mxGeometry x="-130" y="260" width="60" height="30" as="geometry"/></mxCell><mxCell id="HUayzMHF1jjpRH7X-MLb-34" value="&lt;pre style=&quot;font-family: &amp;quot;JetBrains Mono&amp;quot;, monospace;&quot;&gt;photoCount[1] == 0&lt;/pre&gt;" style="text;html=1;strokeColor=none;fillColor=none;align=center;verticalAlign=middle;whiteSpace=wrap;rounded=0;" parent="1" vertex="1"><mxGeometry x="-558" y="260" width="60" height="30" as="geometry"/></mxCell><mxCell id="HUayzMHF1jjpRH7X-MLb-36" value="&lt;pre style=&quot;font-family: &amp;quot;JetBrains Mono&amp;quot;, monospace;&quot;&gt;photoCount[1] &lt;/pre&gt;&lt;pre style=&quot;font-family: &amp;quot;JetBrains Mono&amp;quot;, monospace;&quot;&gt;==&lt;/pre&gt;&lt;pre style=&quot;font-family: &amp;quot;JetBrains Mono&amp;quot;, monospace;&quot;&gt; _photoCount[1]&lt;/pre&gt;" style="text;html=1;strokeColor=none;fillColor=none;align=center;verticalAlign=middle;whiteSpace=wrap;rounded=0;" parent="1" vertex="1"><mxGeometry x="-358" y="230" width="60" height="30" as="geometry"/></mxCell><mxCell id="HUayzMHF1jjpRH7X-MLb-37" value="&lt;pre style=&quot;font-family: &amp;quot;JetBrains Mono&amp;quot;, monospace;&quot;&gt;photoCount[1] &lt;/pre&gt;&lt;pre style=&quot;font-family: &amp;quot;JetBrains Mono&amp;quot;, monospace;&quot;&gt;==&lt;/pre&gt;&lt;pre style=&quot;font-family: &amp;quot;JetBrains Mono&amp;quot;, monospace;&quot;&gt; _photoCount[1]&lt;/pre&gt;" style="text;html=1;strokeColor=none;fillColor=none;align=center;verticalAlign=middle;whiteSpace=wrap;rounded=0;" parent="1" vertex="1"><mxGeometry x="-790" y="240" width="60" height="30" as="geometry"/></mxCell><mxCell id="HUayzMHF1jjpRH7X-MLb-38" value="" style="ellipse;whiteSpace=wrap;html=1;aspect=fixed;" parent="1" vertex="1"><mxGeometry x="-438" y="670" width="50" height="50" as="geometry"/></mxCell></root></mxGraphModel></diagram><diagram id="2YfZ0fICJ_dF_iALAIX5" name="Photo Taking Schematic"><mxGraphModel dx="1815" dy="654" grid="1" gridSize="10" guides="1" tooltips="1" connect="1" arrows="1" fold="1" page="1" pageScale="1" pageWidth="1169" pageHeight="827" math="0" shadow="0"><root><mxCell id="0"/><mxCell id="1" parent="0"/><mxCell id="dn3JCGevlSG4Cso-HG59-33" style="edgeStyle=orthogonalEdgeStyle;rounded=0;orthogonalLoop=1;jettySize=auto;html=1;entryX=0.5;entryY=0;entryDx=0;entryDy=0;" parent="1" source="Z_B1uk1WaqagDKYMCKyK-1" target="dn3JCGevlSG4Cso-HG59-31" edge="1"><mxGeometry relative="1" as="geometry"/></mxCell><mxCell id="Z_B1uk1WaqagDKYMCKyK-1" value="" style="ellipse;whiteSpace=wrap;html=1;aspect=fixed;" parent="1" vertex="1"><mxGeometry x="-725" y="360" width="50" height="50" as="geometry"/></mxCell><mxCell id="dn3JCGevlSG4Cso-HG59-1" value="Typy zdjec" style="swimlane;fontStyle=0;childLayout=stackLayout;horizontal=1;startSize=30;horizontalStack=0;resizeParent=1;resizeParentMax=0;resizeLast=0;collapsible=1;marginBottom=0;whiteSpace=wrap;html=1;" parent="1" vertex="1"><mxGeometry x="1000" y="40" width="140" height="210" as="geometry"><mxRectangle x="-130" y="40" width="100" height="30" as="alternateBounds"/></mxGeometry></mxCell><mxCell id="dn3JCGevlSG4Cso-HG59-2" value="Full" style="text;strokeColor=none;fillColor=none;align=left;verticalAlign=middle;spacingLeft=4;spacingRight=4;overflow=hidden;points=[[0,0.5],[1,0.5]];portConstraint=eastwest;rotatable=0;whiteSpace=wrap;html=1;" parent="dn3JCGevlSG4Cso-HG59-1" vertex="1"><mxGeometry y="30" width="140" height="30" as="geometry"/></mxCell><mxCell id="dn3JCGevlSG4Cso-HG59-3" value="botom" style="text;strokeColor=none;fillColor=none;align=left;verticalAlign=middle;spacingLeft=4;spacingRight=4;overflow=hidden;points=[[0,0.5],[1,0.5]];portConstraint=eastwest;rotatable=0;whiteSpace=wrap;html=1;" parent="dn3JCGevlSG4Cso-HG59-1" vertex="1"><mxGeometry y="60" width="140" height="30" as="geometry"/></mxCell><mxCell id="dn3JCGevlSG4Cso-HG59-4" value="botom left" style="text;strokeColor=none;fillColor=none;align=left;verticalAlign=middle;spacingLeft=4;spacingRight=4;overflow=hidden;points=[[0,0.5],[1,0.5]];portConstraint=eastwest;rotatable=0;whiteSpace=wrap;html=1;" parent="dn3JCGevlSG4Cso-HG59-1" vertex="1"><mxGeometry y="90" width="140" height="30" as="geometry"/></mxCell><mxCell id="dn3JCGevlSG4Cso-HG59-5" value="botom right" style="text;strokeColor=none;fillColor=none;align=left;verticalAlign=middle;spacingLeft=4;spacingRight=4;overflow=hidden;points=[[0,0.5],[1,0.5]];portConstraint=eastwest;rotatable=0;whiteSpace=wrap;html=1;" parent="dn3JCGevlSG4Cso-HG59-1" vertex="1"><mxGeometry y="120" width="140" height="30" as="geometry"/></mxCell><mxCell id="dn3JCGevlSG4Cso-HG59-6" value="left" style="text;strokeColor=none;fillColor=none;align=left;verticalAlign=middle;spacingLeft=4;spacingRight=4;overflow=hidden;points=[[0,0.5],[1,0.5]];portConstraint=eastwest;rotatable=0;whiteSpace=wrap;html=1;" parent="dn3JCGevlSG4Cso-HG59-1" vertex="1"><mxGeometry y="150" width="140" height="30" as="geometry"/></mxCell><mxCell id="dn3JCGevlSG4Cso-HG59-7" value="right" style="text;strokeColor=none;fillColor=none;align=left;verticalAlign=middle;spacingLeft=4;spacingRight=4;overflow=hidden;points=[[0,0.5],[1,0.5]];portConstraint=eastwest;rotatable=0;whiteSpace=wrap;html=1;" parent="dn3JCGevlSG4Cso-HG59-1" vertex="1"><mxGeometry y="180" width="140" height="30" as="geometry"/></mxCell><mxCell id="dn3JCGevlSG4Cso-HG59-10" value="" style="ellipse;whiteSpace=wrap;html=1;aspect=fixed;" parent="1" vertex="1"><mxGeometry x="-725" y="630" width="50" height="50" as="geometry"/></mxCell><mxCell id="dn3JCGevlSG4Cso-HG59-26" style="edgeStyle=orthogonalEdgeStyle;rounded=0;orthogonalLoop=1;jettySize=auto;html=1;entryX=0.5;entryY=0;entryDx=0;entryDy=0;" parent="1" source="dn3JCGevlSG4Cso-HG59-13" target="dn3JCGevlSG4Cso-HG59-25" edge="1"><mxGeometry relative="1" as="geometry"/></mxCell><mxCell id="dn3JCGevlSG4Cso-HG59-13" value="" style="ellipse;whiteSpace=wrap;html=1;aspect=fixed;" parent="1" vertex="1"><mxGeometry x="-570" y="360" width="50" height="50" as="geometry"/></mxCell><mxCell id="dn3JCGevlSG4Cso-HG59-16" value="" style="ellipse;whiteSpace=wrap;html=1;aspect=fixed;" parent="1" vertex="1"><mxGeometry x="-570" y="910" width="50" height="50" as="geometry"/></mxCell><mxCell id="dn3JCGevlSG4Cso-HG59-20" style="edgeStyle=orthogonalEdgeStyle;rounded=0;orthogonalLoop=1;jettySize=auto;html=1;" parent="1" source="dn3JCGevlSG4Cso-HG59-18" target="dn3JCGevlSG4Cso-HG59-19" edge="1"><mxGeometry relative="1" as="geometry"/></mxCell><mxCell id="dn3JCGevlSG4Cso-HG59-22" style="edgeStyle=orthogonalEdgeStyle;rounded=0;orthogonalLoop=1;jettySize=auto;html=1;entryX=0.5;entryY=0;entryDx=0;entryDy=0;" parent="1" source="dn3JCGevlSG4Cso-HG59-18" target="dn3JCGevlSG4Cso-HG59-21" edge="1"><mxGeometry relative="1" as="geometry"><Array as="points"><mxPoint x="-420" y="605"/></Array></mxGeometry></mxCell><mxCell id="dn3JCGevlSG4Cso-HG59-18" value="Manipulator&lt;br&gt;not in &lt;br&gt;optumal position?&lt;br&gt;Y" style="rhombus;whiteSpace=wrap;html=1;" parent="1" vertex="1"><mxGeometry x="-610" y="540" width="130" height="130" as="geometry"/></mxCell><mxCell id="dn3JCGevlSG4Cso-HG59-29" style="edgeStyle=orthogonalEdgeStyle;rounded=0;orthogonalLoop=1;jettySize=auto;html=1;entryX=0.5;entryY=0;entryDx=0;entryDy=0;" parent="1" source="dn3JCGevlSG4Cso-HG59-19" target="dn3JCGevlSG4Cso-HG59-28" edge="1"><mxGeometry relative="1" as="geometry"/></mxCell><mxCell id="dn3JCGevlSG4Cso-HG59-19" value="Chop bottom of fream" style="rounded=0;whiteSpace=wrap;html=1;" parent="1" vertex="1"><mxGeometry x="-605" y="720" width="120" height="60" as="geometry"/></mxCell><mxCell id="dn3JCGevlSG4Cso-HG59-23" style="edgeStyle=orthogonalEdgeStyle;rounded=0;orthogonalLoop=1;jettySize=auto;html=1;entryX=0.5;entryY=0;entryDx=0;entryDy=0;" parent="1" source="dn3JCGevlSG4Cso-HG59-21" target="dn3JCGevlSG4Cso-HG59-19" edge="1"><mxGeometry relative="1" as="geometry"><Array as="points"><mxPoint x="-420" y="700"/><mxPoint x="-545" y="700"/></Array></mxGeometry></mxCell><mxCell id="dn3JCGevlSG4Cso-HG59-21" value="Chop top of fream" style="rounded=0;whiteSpace=wrap;html=1;" parent="1" vertex="1"><mxGeometry x="-480" y="630" width="120" height="60" as="geometry"/></mxCell><mxCell id="dn3JCGevlSG4Cso-HG59-27" style="edgeStyle=orthogonalEdgeStyle;rounded=0;orthogonalLoop=1;jettySize=auto;html=1;entryX=0.5;entryY=0;entryDx=0;entryDy=0;" parent="1" source="dn3JCGevlSG4Cso-HG59-25" target="dn3JCGevlSG4Cso-HG59-18" edge="1"><mxGeometry relative="1" as="geometry"/></mxCell><mxCell id="dn3JCGevlSG4Cso-HG59-25" value="Take Photo" style="rounded=0;whiteSpace=wrap;html=1;" parent="1" vertex="1"><mxGeometry x="-605" y="440" width="120" height="60" as="geometry"/></mxCell><mxCell id="dn3JCGevlSG4Cso-HG59-30" style="edgeStyle=orthogonalEdgeStyle;rounded=0;orthogonalLoop=1;jettySize=auto;html=1;entryX=0.5;entryY=0;entryDx=0;entryDy=0;" parent="1" source="dn3JCGevlSG4Cso-HG59-28" target="dn3JCGevlSG4Cso-HG59-16" edge="1"><mxGeometry relative="1" as="geometry"/></mxCell><mxCell id="dn3JCGevlSG4Cso-HG59-28" value="Insert Photo into Map" style="rounded=0;whiteSpace=wrap;html=1;" parent="1" vertex="1"><mxGeometry x="-605" y="810" width="120" height="60" as="geometry"/></mxCell><mxCell id="dn3JCGevlSG4Cso-HG59-34" style="edgeStyle=orthogonalEdgeStyle;rounded=0;orthogonalLoop=1;jettySize=auto;html=1;" parent="1" source="dn3JCGevlSG4Cso-HG59-31" target="dn3JCGevlSG4Cso-HG59-32" edge="1"><mxGeometry relative="1" as="geometry"/></mxCell><mxCell id="dn3JCGevlSG4Cso-HG59-31" value="Take Photo" style="rounded=0;whiteSpace=wrap;html=1;" parent="1" vertex="1"><mxGeometry x="-760" y="440" width="120" height="60" as="geometry"/></mxCell><mxCell id="dn3JCGevlSG4Cso-HG59-35" style="edgeStyle=orthogonalEdgeStyle;rounded=0;orthogonalLoop=1;jettySize=auto;html=1;" parent="1" source="dn3JCGevlSG4Cso-HG59-32" target="dn3JCGevlSG4Cso-HG59-10" edge="1"><mxGeometry relative="1" as="geometry"/></mxCell><mxCell id="dn3JCGevlSG4Cso-HG59-32" value="Insert Photo into Map" style="rounded=0;whiteSpace=wrap;html=1;" parent="1" vertex="1"><mxGeometry x="-760" y="530" width="120" height="60" as="geometry"/></mxCell><mxCell id="dn3JCGevlSG4Cso-HG59-36" value="Full" style="text;html=1;strokeColor=none;fillColor=none;align=center;verticalAlign=middle;whiteSpace=wrap;rounded=0;" parent="1" vertex="1"><mxGeometry x="-730" y="330" width="60" height="30" as="geometry"/></mxCell><mxCell id="dn3JCGevlSG4Cso-HG59-37" value="Bottom" style="text;html=1;strokeColor=none;fillColor=none;align=center;verticalAlign=middle;whiteSpace=wrap;rounded=0;" parent="1" vertex="1"><mxGeometry x="-575" y="330" width="60" height="30" as="geometry"/></mxCell><mxCell id="dn3JCGevlSG4Cso-HG59-38" value="no" style="text;html=1;strokeColor=none;fillColor=none;align=center;verticalAlign=middle;whiteSpace=wrap;rounded=0;" parent="1" vertex="1"><mxGeometry x="-480" y="570" width="60" height="30" as="geometry"/></mxCell><mxCell id="dn3JCGevlSG4Cso-HG59-39" value="Yes" style="text;html=1;strokeColor=none;fillColor=none;align=center;verticalAlign=middle;whiteSpace=wrap;rounded=0;" parent="1" vertex="1"><mxGeometry x="-605" y="670" width="60" height="30" as="geometry"/></mxCell><mxCell id="dn3JCGevlSG4Cso-HG59-40" style="edgeStyle=orthogonalEdgeStyle;rounded=0;orthogonalLoop=1;jettySize=auto;html=1;entryX=0.5;entryY=0;entryDx=0;entryDy=0;" parent="1" source="dn3JCGevlSG4Cso-HG59-41" target="dn3JCGevlSG4Cso-HG59-51" edge="1"><mxGeometry relative="1" as="geometry"/></mxCell><mxCell id="dn3JCGevlSG4Cso-HG59-41" value="" style="ellipse;whiteSpace=wrap;html=1;aspect=fixed;" parent="1" vertex="1"><mxGeometry x="-310" y="360" width="50" height="50" as="geometry"/></mxCell><mxCell id="dn3JCGevlSG4Cso-HG59-42" value="" style="ellipse;whiteSpace=wrap;html=1;aspect=fixed;" parent="1" vertex="1"><mxGeometry x="-310" y="910" width="50" height="50" as="geometry"/></mxCell><mxCell id="dn3JCGevlSG4Cso-HG59-43" style="edgeStyle=orthogonalEdgeStyle;rounded=0;orthogonalLoop=1;jettySize=auto;html=1;" parent="1" source="dn3JCGevlSG4Cso-HG59-45" target="dn3JCGevlSG4Cso-HG59-47" edge="1"><mxGeometry relative="1" as="geometry"/></mxCell><mxCell id="dn3JCGevlSG4Cso-HG59-44" style="edgeStyle=orthogonalEdgeStyle;rounded=0;orthogonalLoop=1;jettySize=auto;html=1;entryX=0.5;entryY=0;entryDx=0;entryDy=0;" parent="1" source="dn3JCGevlSG4Cso-HG59-45" target="dn3JCGevlSG4Cso-HG59-49" edge="1"><mxGeometry relative="1" as="geometry"><Array as="points"><mxPoint x="-160" y="605"/></Array></mxGeometry></mxCell><mxCell id="dn3JCGevlSG4Cso-HG59-45" value="Manipulator&lt;br&gt;not in &lt;br&gt;optumal position?&lt;br&gt;X" style="rhombus;whiteSpace=wrap;html=1;" parent="1" vertex="1"><mxGeometry x="-350" y="540" width="130" height="130" as="geometry"/></mxCell><mxCell id="dn3JCGevlSG4Cso-HG59-46" style="edgeStyle=orthogonalEdgeStyle;rounded=0;orthogonalLoop=1;jettySize=auto;html=1;entryX=0.5;entryY=0;entryDx=0;entryDy=0;" parent="1" source="dn3JCGevlSG4Cso-HG59-47" target="dn3JCGevlSG4Cso-HG59-53" edge="1"><mxGeometry relative="1" as="geometry"/></mxCell><mxCell id="dn3JCGevlSG4Cso-HG59-47" value="Chop Left of fream" style="rounded=0;whiteSpace=wrap;html=1;" parent="1" vertex="1"><mxGeometry x="-345" y="720" width="120" height="60" as="geometry"/></mxCell><mxCell id="dn3JCGevlSG4Cso-HG59-48" style="edgeStyle=orthogonalEdgeStyle;rounded=0;orthogonalLoop=1;jettySize=auto;html=1;entryX=0.5;entryY=0;entryDx=0;entryDy=0;" parent="1" source="dn3JCGevlSG4Cso-HG59-49" target="dn3JCGevlSG4Cso-HG59-47" edge="1"><mxGeometry relative="1" as="geometry"><Array as="points"><mxPoint x="-160" y="700"/><mxPoint x="-285" y="700"/></Array></mxGeometry></mxCell><mxCell id="dn3JCGevlSG4Cso-HG59-49" value="Chop right of fream" style="rounded=0;whiteSpace=wrap;html=1;" parent="1" vertex="1"><mxGeometry x="-220" y="630" width="120" height="60" as="geometry"/></mxCell><mxCell id="dn3JCGevlSG4Cso-HG59-50" style="edgeStyle=orthogonalEdgeStyle;rounded=0;orthogonalLoop=1;jettySize=auto;html=1;entryX=0.5;entryY=0;entryDx=0;entryDy=0;" parent="1" source="dn3JCGevlSG4Cso-HG59-51" target="dn3JCGevlSG4Cso-HG59-45" edge="1"><mxGeometry relative="1" as="geometry"/></mxCell><mxCell id="dn3JCGevlSG4Cso-HG59-51" value="Take Photo" style="rounded=0;whiteSpace=wrap;html=1;" parent="1" vertex="1"><mxGeometry x="-345" y="440" width="120" height="60" as="geometry"/></mxCell><mxCell id="dn3JCGevlSG4Cso-HG59-52" style="edgeStyle=orthogonalEdgeStyle;rounded=0;orthogonalLoop=1;jettySize=auto;html=1;entryX=0.5;entryY=0;entryDx=0;entryDy=0;" parent="1" source="dn3JCGevlSG4Cso-HG59-53" target="dn3JCGevlSG4Cso-HG59-42" edge="1"><mxGeometry relative="1" as="geometry"/></mxCell><mxCell id="dn3JCGevlSG4Cso-HG59-53" value="Insert Photo into Map" style="rounded=0;whiteSpace=wrap;html=1;" parent="1" vertex="1"><mxGeometry x="-345" y="810" width="120" height="60" as="geometry"/></mxCell><mxCell id="dn3JCGevlSG4Cso-HG59-54" value="no" style="text;html=1;strokeColor=none;fillColor=none;align=center;verticalAlign=middle;whiteSpace=wrap;rounded=0;" parent="1" vertex="1"><mxGeometry x="-220" y="570" width="60" height="30" as="geometry"/></mxCell><mxCell id="dn3JCGevlSG4Cso-HG59-55" value="Yes" style="text;html=1;strokeColor=none;fillColor=none;align=center;verticalAlign=middle;whiteSpace=wrap;rounded=0;" parent="1" vertex="1"><mxGeometry x="-345" y="670" width="60" height="30" as="geometry"/></mxCell><mxCell id="dn3JCGevlSG4Cso-HG59-56" style="edgeStyle=orthogonalEdgeStyle;rounded=0;orthogonalLoop=1;jettySize=auto;html=1;entryX=0.5;entryY=0;entryDx=0;entryDy=0;" parent="1" source="dn3JCGevlSG4Cso-HG59-57" target="dn3JCGevlSG4Cso-HG59-67" edge="1"><mxGeometry relative="1" as="geometry"/></mxCell><mxCell id="dn3JCGevlSG4Cso-HG59-57" value="" style="ellipse;whiteSpace=wrap;html=1;aspect=fixed;" parent="1" vertex="1"><mxGeometry x="-40" y="360" width="50" height="50" as="geometry"/></mxCell><mxCell id="dn3JCGevlSG4Cso-HG59-58" value="" style="ellipse;whiteSpace=wrap;html=1;aspect=fixed;" parent="1" vertex="1"><mxGeometry x="-40" y="910" width="50" height="50" as="geometry"/></mxCell><mxCell id="dn3JCGevlSG4Cso-HG59-59" style="edgeStyle=orthogonalEdgeStyle;rounded=0;orthogonalLoop=1;jettySize=auto;html=1;" parent="1" source="dn3JCGevlSG4Cso-HG59-61" target="dn3JCGevlSG4Cso-HG59-63" edge="1"><mxGeometry relative="1" as="geometry"/></mxCell><mxCell id="dn3JCGevlSG4Cso-HG59-60" style="edgeStyle=orthogonalEdgeStyle;rounded=0;orthogonalLoop=1;jettySize=auto;html=1;entryX=0.5;entryY=0;entryDx=0;entryDy=0;" parent="1" source="dn3JCGevlSG4Cso-HG59-61" target="dn3JCGevlSG4Cso-HG59-65" edge="1"><mxGeometry relative="1" as="geometry"><Array as="points"><mxPoint x="110" y="605"/></Array></mxGeometry></mxCell><mxCell id="dn3JCGevlSG4Cso-HG59-61" value="Manipulator&lt;br&gt;not in &lt;br&gt;optumal position?&lt;br&gt;X" style="rhombus;whiteSpace=wrap;html=1;" parent="1" vertex="1"><mxGeometry x="-80" y="540" width="130" height="130" as="geometry"/></mxCell><mxCell id="dn3JCGevlSG4Cso-HG59-62" style="edgeStyle=orthogonalEdgeStyle;rounded=0;orthogonalLoop=1;jettySize=auto;html=1;entryX=0.5;entryY=0;entryDx=0;entryDy=0;" parent="1" source="dn3JCGevlSG4Cso-HG59-63" target="dn3JCGevlSG4Cso-HG59-69" edge="1"><mxGeometry relative="1" as="geometry"/></mxCell><mxCell id="dn3JCGevlSG4Cso-HG59-63" value="Chop right of fream" style="rounded=0;whiteSpace=wrap;html=1;" parent="1" vertex="1"><mxGeometry x="-75" y="720" width="120" height="60" as="geometry"/></mxCell><mxCell id="dn3JCGevlSG4Cso-HG59-64" style="edgeStyle=orthogonalEdgeStyle;rounded=0;orthogonalLoop=1;jettySize=auto;html=1;entryX=0.5;entryY=0;entryDx=0;entryDy=0;" parent="1" source="dn3JCGevlSG4Cso-HG59-65" target="dn3JCGevlSG4Cso-HG59-63" edge="1"><mxGeometry relative="1" as="geometry"><Array as="points"><mxPoint x="110" y="700"/><mxPoint x="-15" y="700"/></Array></mxGeometry></mxCell><mxCell id="dn3JCGevlSG4Cso-HG59-65" value="Chop left of fream" style="rounded=0;whiteSpace=wrap;html=1;" parent="1" vertex="1"><mxGeometry x="50" y="630" width="120" height="60" as="geometry"/></mxCell><mxCell id="dn3JCGevlSG4Cso-HG59-66" style="edgeStyle=orthogonalEdgeStyle;rounded=0;orthogonalLoop=1;jettySize=auto;html=1;entryX=0.5;entryY=0;entryDx=0;entryDy=0;" parent="1" source="dn3JCGevlSG4Cso-HG59-67" target="dn3JCGevlSG4Cso-HG59-61" edge="1"><mxGeometry relative="1" as="geometry"/></mxCell><mxCell id="dn3JCGevlSG4Cso-HG59-67" value="Take Photo" style="rounded=0;whiteSpace=wrap;html=1;" parent="1" vertex="1"><mxGeometry x="-75" y="440" width="120" height="60" as="geometry"/></mxCell><mxCell id="dn3JCGevlSG4Cso-HG59-68" style="edgeStyle=orthogonalEdgeStyle;rounded=0;orthogonalLoop=1;jettySize=auto;html=1;entryX=0.5;entryY=0;entryDx=0;entryDy=0;" parent="1" source="dn3JCGevlSG4Cso-HG59-69" target="dn3JCGevlSG4Cso-HG59-58" edge="1"><mxGeometry relative="1" as="geometry"/></mxCell><mxCell id="dn3JCGevlSG4Cso-HG59-69" value="Insert Photo into Map" style="rounded=0;whiteSpace=wrap;html=1;" parent="1" vertex="1"><mxGeometry x="-75" y="810" width="120" height="60" as="geometry"/></mxCell><mxCell id="dn3JCGevlSG4Cso-HG59-70" value="no" style="text;html=1;strokeColor=none;fillColor=none;align=center;verticalAlign=middle;whiteSpace=wrap;rounded=0;" parent="1" vertex="1"><mxGeometry x="50" y="570" width="60" height="30" as="geometry"/></mxCell><mxCell id="dn3JCGevlSG4Cso-HG59-71" value="Yes" style="text;html=1;strokeColor=none;fillColor=none;align=center;verticalAlign=middle;whiteSpace=wrap;rounded=0;" parent="1" vertex="1"><mxGeometry x="-75" y="670" width="60" height="30" as="geometry"/></mxCell><mxCell id="dn3JCGevlSG4Cso-HG59-72" value="Left" style="text;html=1;strokeColor=none;fillColor=none;align=center;verticalAlign=middle;whiteSpace=wrap;rounded=0;" parent="1" vertex="1"><mxGeometry x="-315" y="330" width="60" height="30" as="geometry"/></mxCell><mxCell id="dn3JCGevlSG4Cso-HG59-73" value="Right" style="text;html=1;strokeColor=none;fillColor=none;align=center;verticalAlign=middle;whiteSpace=wrap;rounded=0;" parent="1" vertex="1"><mxGeometry x="-45" y="330" width="60" height="30" as="geometry"/></mxCell><mxCell id="dn3JCGevlSG4Cso-HG59-74" style="edgeStyle=orthogonalEdgeStyle;rounded=0;orthogonalLoop=1;jettySize=auto;html=1;entryX=0.5;entryY=0;entryDx=0;entryDy=0;" parent="1" source="dn3JCGevlSG4Cso-HG59-75" target="dn3JCGevlSG4Cso-HG59-85" edge="1"><mxGeometry relative="1" as="geometry"/></mxCell><mxCell id="dn3JCGevlSG4Cso-HG59-75" value="" style="ellipse;whiteSpace=wrap;html=1;aspect=fixed;" parent="1" vertex="1"><mxGeometry x="240" y="360" width="50" height="50" as="geometry"/></mxCell><mxCell id="dn3JCGevlSG4Cso-HG59-77" style="edgeStyle=orthogonalEdgeStyle;rounded=0;orthogonalLoop=1;jettySize=auto;html=1;" parent="1" source="dn3JCGevlSG4Cso-HG59-79" target="dn3JCGevlSG4Cso-HG59-81" edge="1"><mxGeometry relative="1" as="geometry"/></mxCell><mxCell id="dn3JCGevlSG4Cso-HG59-78" style="edgeStyle=orthogonalEdgeStyle;rounded=0;orthogonalLoop=1;jettySize=auto;html=1;entryX=0.5;entryY=0;entryDx=0;entryDy=0;" parent="1" source="dn3JCGevlSG4Cso-HG59-79" target="dn3JCGevlSG4Cso-HG59-83" edge="1"><mxGeometry relative="1" as="geometry"><Array as="points"><mxPoint x="390" y="605"/></Array></mxGeometry></mxCell><mxCell id="dn3JCGevlSG4Cso-HG59-79" value="Manipulator&lt;br&gt;not in &lt;br&gt;optumal position?&lt;br&gt;X" style="rhombus;whiteSpace=wrap;html=1;" parent="1" vertex="1"><mxGeometry x="200" y="540" width="130" height="130" as="geometry"/></mxCell><mxCell id="dn3JCGevlSG4Cso-HG59-96" style="edgeStyle=orthogonalEdgeStyle;rounded=0;orthogonalLoop=1;jettySize=auto;html=1;" parent="1" source="dn3JCGevlSG4Cso-HG59-81" target="dn3JCGevlSG4Cso-HG59-92" edge="1"><mxGeometry relative="1" as="geometry"/></mxCell><mxCell id="dn3JCGevlSG4Cso-HG59-81" value="Chop right of fream" style="rounded=0;whiteSpace=wrap;html=1;" parent="1" vertex="1"><mxGeometry x="205" y="720" width="120" height="60" as="geometry"/></mxCell><mxCell id="dn3JCGevlSG4Cso-HG59-82" style="edgeStyle=orthogonalEdgeStyle;rounded=0;orthogonalLoop=1;jettySize=auto;html=1;entryX=0.5;entryY=0;entryDx=0;entryDy=0;" parent="1" source="dn3JCGevlSG4Cso-HG59-83" target="dn3JCGevlSG4Cso-HG59-81" edge="1"><mxGeometry relative="1" as="geometry"><Array as="points"><mxPoint x="390" y="700"/><mxPoint x="265" y="700"/></Array></mxGeometry></mxCell><mxCell id="dn3JCGevlSG4Cso-HG59-83" value="Chop left of fream" style="rounded=0;whiteSpace=wrap;html=1;" parent="1" vertex="1"><mxGeometry x="330" y="630" width="120" height="60" as="geometry"/></mxCell><mxCell id="dn3JCGevlSG4Cso-HG59-84" style="edgeStyle=orthogonalEdgeStyle;rounded=0;orthogonalLoop=1;jettySize=auto;html=1;entryX=0.5;entryY=0;entryDx=0;entryDy=0;" parent="1" source="dn3JCGevlSG4Cso-HG59-85" target="dn3JCGevlSG4Cso-HG59-79" edge="1"><mxGeometry relative="1" as="geometry"/></mxCell><mxCell id="dn3JCGevlSG4Cso-HG59-85" value="Take Photo" style="rounded=0;whiteSpace=wrap;html=1;" parent="1" vertex="1"><mxGeometry x="205" y="440" width="120" height="60" as="geometry"/></mxCell><mxCell id="dn3JCGevlSG4Cso-HG59-100" style="edgeStyle=orthogonalEdgeStyle;rounded=0;orthogonalLoop=1;jettySize=auto;html=1;" parent="1" source="dn3JCGevlSG4Cso-HG59-87" target="dn3JCGevlSG4Cso-HG59-99" edge="1"><mxGeometry relative="1" as="geometry"/></mxCell><mxCell id="dn3JCGevlSG4Cso-HG59-87" value="Chop bottom of fream" style="rounded=0;whiteSpace=wrap;html=1;" parent="1" vertex="1"><mxGeometry x="205" y="1000" width="120" height="60" as="geometry"/></mxCell><mxCell id="dn3JCGevlSG4Cso-HG59-88" value="no" style="text;html=1;strokeColor=none;fillColor=none;align=center;verticalAlign=middle;whiteSpace=wrap;rounded=0;" parent="1" vertex="1"><mxGeometry x="330" y="570" width="60" height="30" as="geometry"/></mxCell><mxCell id="dn3JCGevlSG4Cso-HG59-89" value="Yes" style="text;html=1;strokeColor=none;fillColor=none;align=center;verticalAlign=middle;whiteSpace=wrap;rounded=0;" parent="1" vertex="1"><mxGeometry x="205" y="670" width="60" height="30" as="geometry"/></mxCell><mxCell id="dn3JCGevlSG4Cso-HG59-90" value="Bottom Right" style="text;html=1;strokeColor=none;fillColor=none;align=center;verticalAlign=middle;whiteSpace=wrap;rounded=0;" parent="1" vertex="1"><mxGeometry x="235" y="330" width="60" height="30" as="geometry"/></mxCell><mxCell id="dn3JCGevlSG4Cso-HG59-91" style="edgeStyle=orthogonalEdgeStyle;rounded=0;orthogonalLoop=1;jettySize=auto;html=1;entryX=0.5;entryY=0;entryDx=0;entryDy=0;" parent="1" source="dn3JCGevlSG4Cso-HG59-92" target="dn3JCGevlSG4Cso-HG59-93" edge="1"><mxGeometry relative="1" as="geometry"><Array as="points"><mxPoint x="390" y="875"/></Array></mxGeometry></mxCell><mxCell id="dn3JCGevlSG4Cso-HG59-97" style="edgeStyle=orthogonalEdgeStyle;rounded=0;orthogonalLoop=1;jettySize=auto;html=1;" parent="1" source="dn3JCGevlSG4Cso-HG59-92" target="dn3JCGevlSG4Cso-HG59-87" edge="1"><mxGeometry relative="1" as="geometry"/></mxCell><mxCell id="dn3JCGevlSG4Cso-HG59-92" value="Manipulator&lt;br&gt;not in &lt;br&gt;optumal position?&lt;br&gt;Y" style="rhombus;whiteSpace=wrap;html=1;" parent="1" vertex="1"><mxGeometry x="200" y="810" width="130" height="130" as="geometry"/></mxCell><mxCell id="dn3JCGevlSG4Cso-HG59-98" style="edgeStyle=orthogonalEdgeStyle;rounded=0;orthogonalLoop=1;jettySize=auto;html=1;" parent="1" source="dn3JCGevlSG4Cso-HG59-93" target="dn3JCGevlSG4Cso-HG59-87" edge="1"><mxGeometry relative="1" as="geometry"><Array as="points"><mxPoint x="390" y="980"/><mxPoint x="265" y="980"/></Array></mxGeometry></mxCell><mxCell id="dn3JCGevlSG4Cso-HG59-93" value="Chop top of fream" style="rounded=0;whiteSpace=wrap;html=1;" parent="1" vertex="1"><mxGeometry x="330" y="900" width="120" height="60" as="geometry"/></mxCell><mxCell id="dn3JCGevlSG4Cso-HG59-94" value="no" style="text;html=1;strokeColor=none;fillColor=none;align=center;verticalAlign=middle;whiteSpace=wrap;rounded=0;" parent="1" vertex="1"><mxGeometry x="330" y="840" width="60" height="30" as="geometry"/></mxCell><mxCell id="dn3JCGevlSG4Cso-HG59-95" value="Yes" style="text;html=1;strokeColor=none;fillColor=none;align=center;verticalAlign=middle;whiteSpace=wrap;rounded=0;" parent="1" vertex="1"><mxGeometry x="205" y="940" width="60" height="30" as="geometry"/></mxCell><mxCell id="dn3JCGevlSG4Cso-HG59-102" style="edgeStyle=orthogonalEdgeStyle;rounded=0;orthogonalLoop=1;jettySize=auto;html=1;entryX=0.5;entryY=0;entryDx=0;entryDy=0;" parent="1" source="dn3JCGevlSG4Cso-HG59-99" target="dn3JCGevlSG4Cso-HG59-101" edge="1"><mxGeometry relative="1" as="geometry"/></mxCell><mxCell id="dn3JCGevlSG4Cso-HG59-99" value="Insert Photo into Map" style="rounded=0;whiteSpace=wrap;html=1;" parent="1" vertex="1"><mxGeometry x="205" y="1090" width="120" height="60" as="geometry"/></mxCell><mxCell id="dn3JCGevlSG4Cso-HG59-101" value="" style="ellipse;whiteSpace=wrap;html=1;aspect=fixed;" parent="1" vertex="1"><mxGeometry x="240" y="1180" width="50" height="50" as="geometry"/></mxCell><mxCell id="dn3JCGevlSG4Cso-HG59-103" style="edgeStyle=orthogonalEdgeStyle;rounded=0;orthogonalLoop=1;jettySize=auto;html=1;entryX=0.5;entryY=0;entryDx=0;entryDy=0;" parent="1" source="dn3JCGevlSG4Cso-HG59-104" target="dn3JCGevlSG4Cso-HG59-113" edge="1"><mxGeometry relative="1" as="geometry"/></mxCell><mxCell id="dn3JCGevlSG4Cso-HG59-104" value="" style="ellipse;whiteSpace=wrap;html=1;aspect=fixed;" parent="1" vertex="1"><mxGeometry x="530" y="360" width="50" height="50" as="geometry"/></mxCell><mxCell id="dn3JCGevlSG4Cso-HG59-105" style="edgeStyle=orthogonalEdgeStyle;rounded=0;orthogonalLoop=1;jettySize=auto;html=1;" parent="1" source="dn3JCGevlSG4Cso-HG59-107" target="dn3JCGevlSG4Cso-HG59-109" edge="1"><mxGeometry relative="1" as="geometry"/></mxCell><mxCell id="dn3JCGevlSG4Cso-HG59-106" style="edgeStyle=orthogonalEdgeStyle;rounded=0;orthogonalLoop=1;jettySize=auto;html=1;entryX=0.5;entryY=0;entryDx=0;entryDy=0;" parent="1" source="dn3JCGevlSG4Cso-HG59-107" target="dn3JCGevlSG4Cso-HG59-111" edge="1"><mxGeometry relative="1" as="geometry"><Array as="points"><mxPoint x="680" y="605"/></Array></mxGeometry></mxCell><mxCell id="dn3JCGevlSG4Cso-HG59-107" value="Manipulator&lt;br&gt;not in &lt;br&gt;optumal position?&lt;br&gt;X" style="rhombus;whiteSpace=wrap;html=1;" parent="1" vertex="1"><mxGeometry x="490" y="540" width="130" height="130" as="geometry"/></mxCell><mxCell id="dn3JCGevlSG4Cso-HG59-108" style="edgeStyle=orthogonalEdgeStyle;rounded=0;orthogonalLoop=1;jettySize=auto;html=1;" parent="1" source="dn3JCGevlSG4Cso-HG59-109" target="dn3JCGevlSG4Cso-HG59-121" edge="1"><mxGeometry relative="1" as="geometry"/></mxCell><mxCell id="dn3JCGevlSG4Cso-HG59-109" value="Chop left of fream" style="rounded=0;whiteSpace=wrap;html=1;" parent="1" vertex="1"><mxGeometry x="495" y="720" width="120" height="60" as="geometry"/></mxCell><mxCell id="dn3JCGevlSG4Cso-HG59-110" style="edgeStyle=orthogonalEdgeStyle;rounded=0;orthogonalLoop=1;jettySize=auto;html=1;entryX=0.5;entryY=0;entryDx=0;entryDy=0;" parent="1" source="dn3JCGevlSG4Cso-HG59-111" target="dn3JCGevlSG4Cso-HG59-109" edge="1"><mxGeometry relative="1" as="geometry"><Array as="points"><mxPoint x="680" y="700"/><mxPoint x="555" y="700"/></Array></mxGeometry></mxCell><mxCell id="dn3JCGevlSG4Cso-HG59-111" value="Chop right of fream" style="rounded=0;whiteSpace=wrap;html=1;" parent="1" vertex="1"><mxGeometry x="620" y="630" width="120" height="60" as="geometry"/></mxCell><mxCell id="dn3JCGevlSG4Cso-HG59-112" style="edgeStyle=orthogonalEdgeStyle;rounded=0;orthogonalLoop=1;jettySize=auto;html=1;entryX=0.5;entryY=0;entryDx=0;entryDy=0;" parent="1" source="dn3JCGevlSG4Cso-HG59-113" target="dn3JCGevlSG4Cso-HG59-107" edge="1"><mxGeometry relative="1" as="geometry"/></mxCell><mxCell id="dn3JCGevlSG4Cso-HG59-113" value="Take Photo" style="rounded=0;whiteSpace=wrap;html=1;" parent="1" vertex="1"><mxGeometry x="495" y="440" width="120" height="60" as="geometry"/></mxCell><mxCell id="dn3JCGevlSG4Cso-HG59-114" style="edgeStyle=orthogonalEdgeStyle;rounded=0;orthogonalLoop=1;jettySize=auto;html=1;" parent="1" source="dn3JCGevlSG4Cso-HG59-115" target="dn3JCGevlSG4Cso-HG59-127" edge="1"><mxGeometry relative="1" as="geometry"/></mxCell><mxCell id="dn3JCGevlSG4Cso-HG59-115" value="Chop bottom of fream" style="rounded=0;whiteSpace=wrap;html=1;" parent="1" vertex="1"><mxGeometry x="495" y="1000" width="120" height="60" as="geometry"/></mxCell><mxCell id="dn3JCGevlSG4Cso-HG59-116" value="no" style="text;html=1;strokeColor=none;fillColor=none;align=center;verticalAlign=middle;whiteSpace=wrap;rounded=0;" parent="1" vertex="1"><mxGeometry x="620" y="570" width="60" height="30" as="geometry"/></mxCell><mxCell id="dn3JCGevlSG4Cso-HG59-117" value="Yes" style="text;html=1;strokeColor=none;fillColor=none;align=center;verticalAlign=middle;whiteSpace=wrap;rounded=0;" parent="1" vertex="1"><mxGeometry x="495" y="670" width="60" height="30" as="geometry"/></mxCell><mxCell id="dn3JCGevlSG4Cso-HG59-118" value="Bottom Left" style="text;html=1;strokeColor=none;fillColor=none;align=center;verticalAlign=middle;whiteSpace=wrap;rounded=0;" parent="1" vertex="1"><mxGeometry x="525" y="330" width="60" height="30" as="geometry"/></mxCell><mxCell id="dn3JCGevlSG4Cso-HG59-119" style="edgeStyle=orthogonalEdgeStyle;rounded=0;orthogonalLoop=1;jettySize=auto;html=1;entryX=0.5;entryY=0;entryDx=0;entryDy=0;" parent="1" source="dn3JCGevlSG4Cso-HG59-121" target="dn3JCGevlSG4Cso-HG59-123" edge="1"><mxGeometry relative="1" as="geometry"><Array as="points"><mxPoint x="680" y="875"/></Array></mxGeometry></mxCell><mxCell id="dn3JCGevlSG4Cso-HG59-120" style="edgeStyle=orthogonalEdgeStyle;rounded=0;orthogonalLoop=1;jettySize=auto;html=1;" parent="1" source="dn3JCGevlSG4Cso-HG59-121" target="dn3JCGevlSG4Cso-HG59-115" edge="1"><mxGeometry relative="1" as="geometry"/></mxCell><mxCell id="dn3JCGevlSG4Cso-HG59-121" value="Manipulator&lt;br&gt;not in &lt;br&gt;optumal position?&lt;br&gt;Y" style="rhombus;whiteSpace=wrap;html=1;" parent="1" vertex="1"><mxGeometry x="490" y="810" width="130" height="130" as="geometry"/></mxCell><mxCell id="dn3JCGevlSG4Cso-HG59-122" style="edgeStyle=orthogonalEdgeStyle;rounded=0;orthogonalLoop=1;jettySize=auto;html=1;" parent="1" source="dn3JCGevlSG4Cso-HG59-123" target="dn3JCGevlSG4Cso-HG59-115" edge="1"><mxGeometry relative="1" as="geometry"><Array as="points"><mxPoint x="680" y="980"/><mxPoint x="555" y="980"/></Array></mxGeometry></mxCell><mxCell id="dn3JCGevlSG4Cso-HG59-123" value="Chop top of fream" style="rounded=0;whiteSpace=wrap;html=1;" parent="1" vertex="1"><mxGeometry x="620" y="900" width="120" height="60" as="geometry"/></mxCell><mxCell id="dn3JCGevlSG4Cso-HG59-124" value="no" style="text;html=1;strokeColor=none;fillColor=none;align=center;verticalAlign=middle;whiteSpace=wrap;rounded=0;" parent="1" vertex="1"><mxGeometry x="620" y="840" width="60" height="30" as="geometry"/></mxCell><mxCell id="dn3JCGevlSG4Cso-HG59-125" value="Yes" style="text;html=1;strokeColor=none;fillColor=none;align=center;verticalAlign=middle;whiteSpace=wrap;rounded=0;" parent="1" vertex="1"><mxGeometry x="495" y="940" width="60" height="30" as="geometry"/></mxCell><mxCell id="dn3JCGevlSG4Cso-HG59-126" style="edgeStyle=orthogonalEdgeStyle;rounded=0;orthogonalLoop=1;jettySize=auto;html=1;entryX=0.5;entryY=0;entryDx=0;entryDy=0;" parent="1" source="dn3JCGevlSG4Cso-HG59-127" target="dn3JCGevlSG4Cso-HG59-128" edge="1"><mxGeometry relative="1" as="geometry"/></mxCell><mxCell id="dn3JCGevlSG4Cso-HG59-127" value="Insert Photo into Map" style="rounded=0;whiteSpace=wrap;html=1;" parent="1" vertex="1"><mxGeometry x="495" y="1090" width="120" height="60" as="geometry"/></mxCell><mxCell id="dn3JCGevlSG4Cso-HG59-128" value="" style="ellipse;whiteSpace=wrap;html=1;aspect=fixed;" parent="1" vertex="1"><mxGeometry x="530" y="1180" width="50" height="50" as="geometry"/></mxCell></root></mxGraphModel></diagram><diagram id="kjtMqCejcMqK-dtgtow2" name="Oblicz nastempna pozycje Manipulatora"><mxGraphModel dx="1746" dy="654" grid="1" gridSize="10" guides="1" tooltips="1" connect="1" arrows="1" fold="1" page="1" pageScale="1" pageWidth="1100" pageHeight="850" math="0" shadow="0"><root><mxCell id="0"/><mxCell id="1" parent="0"/><mxCell id="CvVh8KwR61IHCd8IbnS2-3" style="edgeStyle=orthogonalEdgeStyle;rounded=0;orthogonalLoop=1;jettySize=auto;html=1;entryX=0.5;entryY=0;entryDx=0;entryDy=0;fontColor=#000000;" parent="1" source="lsg4dZYK9R5imTybAwXn-1" target="19bT7xeu2GanwZoAcjP5-6" edge="1"><mxGeometry relative="1" as="geometry"/></mxCell><mxCell id="lsg4dZYK9R5imTybAwXn-1" value="" style="ellipse;whiteSpace=wrap;html=1;aspect=fixed;" parent="1" vertex="1"><mxGeometry x="-745" y="440" width="50" height="50" as="geometry"/></mxCell><mxCell id="19bT7xeu2GanwZoAcjP5-1" style="edgeStyle=orthogonalEdgeStyle;rounded=0;orthogonalLoop=1;jettySize=auto;html=1;" parent="1" source="lsg4dZYK9R5imTybAwXn-2" target="lsg4dZYK9R5imTybAwXn-4" edge="1"><mxGeometry relative="1" as="geometry"><Array as="points"><mxPoint x="-820" y="1140"/></Array></mxGeometry></mxCell><mxCell id="19bT7xeu2GanwZoAcjP5-2" style="edgeStyle=orthogonalEdgeStyle;rounded=0;orthogonalLoop=1;jettySize=auto;html=1;entryX=0.5;entryY=0;entryDx=0;entryDy=0;" parent="1" source="lsg4dZYK9R5imTybAwXn-2" target="lsg4dZYK9R5imTybAwXn-5" edge="1"><mxGeometry relative="1" as="geometry"><Array as="points"><mxPoint x="-620" y="1140"/></Array></mxGeometry></mxCell><mxCell id="lsg4dZYK9R5imTybAwXn-2" value="Left or Right" style="rhombus;whiteSpace=wrap;html=1;" parent="1" vertex="1"><mxGeometry x="-760" y="1100" width="80" height="80" as="geometry"/></mxCell><mxCell id="QEdZKegxMu1BIWH5tdOG-2" style="edgeStyle=orthogonalEdgeStyle;rounded=0;orthogonalLoop=1;jettySize=auto;html=1;entryX=0.5;entryY=0;entryDx=0;entryDy=0;" parent="1" source="lsg4dZYK9R5imTybAwXn-4" target="QEdZKegxMu1BIWH5tdOG-1" edge="1"><mxGeometry relative="1" as="geometry"><Array as="points"><mxPoint x="-820" y="1280"/><mxPoint x="-720" y="1280"/></Array></mxGeometry></mxCell><mxCell id="lsg4dZYK9R5imTybAwXn-4" value="&lt;pre style=&quot;font-family: &amp;quot;JetBrains Mono&amp;quot;, monospace;&quot;&gt;photoCount[1] -=1&lt;/pre&gt;" style="rounded=0;whiteSpace=wrap;html=1;" parent="1" vertex="1"><mxGeometry x="-880" y="1180" width="120" height="60" as="geometry"/></mxCell><mxCell id="QEdZKegxMu1BIWH5tdOG-5" style="edgeStyle=orthogonalEdgeStyle;rounded=0;orthogonalLoop=1;jettySize=auto;html=1;entryX=0.5;entryY=0;entryDx=0;entryDy=0;" parent="1" source="lsg4dZYK9R5imTybAwXn-5" target="QEdZKegxMu1BIWH5tdOG-1" edge="1"><mxGeometry relative="1" as="geometry"><Array as="points"><mxPoint x="-620" y="1280"/><mxPoint x="-720" y="1280"/></Array></mxGeometry></mxCell><mxCell id="lsg4dZYK9R5imTybAwXn-5" value="&lt;pre style=&quot;font-family: &amp;quot;JetBrains Mono&amp;quot;, monospace;&quot;&gt;photoCount[1] +=1&lt;/pre&gt;" style="rounded=0;whiteSpace=wrap;html=1;" parent="1" vertex="1"><mxGeometry x="-680" y="1180" width="120" height="60" as="geometry"/></mxCell><mxCell id="19bT7xeu2GanwZoAcjP5-3" value="Left" style="text;html=1;strokeColor=none;fillColor=none;align=center;verticalAlign=middle;whiteSpace=wrap;rounded=0;" parent="1" vertex="1"><mxGeometry x="-830" y="1110" width="60" height="30" as="geometry"/></mxCell><mxCell id="19bT7xeu2GanwZoAcjP5-4" value="Right" style="text;html=1;strokeColor=none;fillColor=none;align=center;verticalAlign=middle;whiteSpace=wrap;rounded=0;" parent="1" vertex="1"><mxGeometry x="-660" y="1110" width="60" height="30" as="geometry"/></mxCell><mxCell id="94aGW_dUyxDY2enkw5zE-5" style="edgeStyle=orthogonalEdgeStyle;rounded=0;orthogonalLoop=1;jettySize=auto;html=1;entryX=0;entryY=0.5;entryDx=0;entryDy=0;" parent="1" source="19bT7xeu2GanwZoAcjP5-6" target="94aGW_dUyxDY2enkw5zE-4" edge="1"><mxGeometry relative="1" as="geometry"/></mxCell><mxCell id="xRPIcVJvBs_LHuUNJkDG-8" style="edgeStyle=orthogonalEdgeStyle;rounded=0;orthogonalLoop=1;jettySize=auto;html=1;entryX=0.5;entryY=0;entryDx=0;entryDy=0;" parent="1" source="19bT7xeu2GanwZoAcjP5-6" target="19bT7xeu2GanwZoAcjP5-7" edge="1"><mxGeometry relative="1" as="geometry"/></mxCell><mxCell id="19bT7xeu2GanwZoAcjP5-6" value="&lt;pre style=&quot;font-family: &amp;quot;JetBrains Mono&amp;quot;, monospace;&quot;&gt;&lt;br&gt;&lt;/pre&gt;&lt;pre style=&quot;font-family: &amp;quot;JetBrains Mono&amp;quot;, monospace;&quot;&gt;photoCount[1] ==0&lt;/pre&gt;&lt;pre style=&quot;font-family: &amp;quot;JetBrains Mono&amp;quot;, monospace;&quot;&gt;and&lt;/pre&gt;&lt;pre style=&quot;font-family: &amp;quot;JetBrains Mono&amp;quot;, monospace;&quot;&gt;left&lt;/pre&gt;" style="rhombus;whiteSpace=wrap;html=1;" parent="1" vertex="1"><mxGeometry x="-800" y="530" width="160" height="160" as="geometry"/></mxCell><mxCell id="19bT7xeu2GanwZoAcjP5-10" style="edgeStyle=orthogonalEdgeStyle;rounded=0;orthogonalLoop=1;jettySize=auto;html=1;" parent="1" source="19bT7xeu2GanwZoAcjP5-7" target="lsg4dZYK9R5imTybAwXn-2" edge="1"><mxGeometry relative="1" as="geometry"/></mxCell><mxCell id="xRPIcVJvBs_LHuUNJkDG-7" style="edgeStyle=orthogonalEdgeStyle;rounded=0;orthogonalLoop=1;jettySize=auto;html=1;" parent="1" source="19bT7xeu2GanwZoAcjP5-7" target="xRPIcVJvBs_LHuUNJkDG-6" edge="1"><mxGeometry relative="1" as="geometry"/></mxCell><mxCell id="19bT7xeu2GanwZoAcjP5-7" value="&lt;pre style=&quot;font-family: &amp;quot;JetBrains Mono&amp;quot;, monospace;&quot;&gt;&lt;span style=&quot;background-color: initial; white-space: normal;&quot;&gt;photoC[1]&amp;nbsp;&lt;/span&gt;&lt;br&gt;&lt;/pre&gt;&lt;pre style=&quot;font-family: &amp;quot;JetBrains Mono&amp;quot;, monospace;&quot;&gt;==__photoC[1]&lt;/pre&gt;&lt;pre style=&quot;font-family: &amp;quot;JetBrains Mono&amp;quot;, monospace;&quot;&gt;and &lt;/pre&gt;&lt;pre style=&quot;font-family: &amp;quot;JetBrains Mono&amp;quot;, monospace;&quot;&gt;right&lt;/pre&gt;" style="rhombus;whiteSpace=wrap;html=1;" parent="1" vertex="1"><mxGeometry x="-800" y="820" width="160" height="160" as="geometry"/></mxCell><mxCell id="19bT7xeu2GanwZoAcjP5-13" value="Yes" style="text;html=1;strokeColor=none;fillColor=none;align=center;verticalAlign=middle;whiteSpace=wrap;rounded=0;" parent="1" vertex="1"><mxGeometry x="-660" y="580" width="60" height="30" as="geometry"/></mxCell><mxCell id="19bT7xeu2GanwZoAcjP5-14" value="Yes" style="text;html=1;strokeColor=none;fillColor=none;align=center;verticalAlign=middle;whiteSpace=wrap;rounded=0;" parent="1" vertex="1"><mxGeometry x="-655" y="870" width="60" height="30" as="geometry"/></mxCell><mxCell id="QEdZKegxMu1BIWH5tdOG-8" style="edgeStyle=orthogonalEdgeStyle;rounded=0;orthogonalLoop=1;jettySize=auto;html=1;" parent="1" source="19bT7xeu2GanwZoAcjP5-15" target="QEdZKegxMu1BIWH5tdOG-1" edge="1"><mxGeometry relative="1" as="geometry"><Array as="points"><mxPoint x="-230" y="1280"/><mxPoint x="-720" y="1280"/></Array></mxGeometry></mxCell><mxCell id="19bT7xeu2GanwZoAcjP5-15" value="&lt;pre style=&quot;font-family: &amp;quot;JetBrains Mono&amp;quot;, monospace;&quot;&gt;photoCount[0] +=1&lt;/pre&gt;" style="rounded=0;whiteSpace=wrap;html=1;" parent="1" vertex="1"><mxGeometry x="-290" y="1180" width="120" height="60" as="geometry"/></mxCell><mxCell id="xRPIcVJvBs_LHuUNJkDG-31" style="edgeStyle=orthogonalEdgeStyle;rounded=0;orthogonalLoop=1;jettySize=auto;html=1;entryX=0.5;entryY=0;entryDx=0;entryDy=0;" parent="1" source="19bT7xeu2GanwZoAcjP5-16" target="19bT7xeu2GanwZoAcjP5-15" edge="1"><mxGeometry relative="1" as="geometry"><Array as="points"><mxPoint x="-520" y="800"/><mxPoint x="-230" y="800"/></Array><mxPoint x="-230" y="1100" as="targetPoint"/></mxGeometry></mxCell><mxCell id="19bT7xeu2GanwZoAcjP5-16" value="&lt;pre style=&quot;font-family: &amp;quot;JetBrains Mono&amp;quot;, monospace;&quot;&gt;&lt;span style=&quot;font-family: Helvetica;&quot;&gt;mapDirection = R&lt;/span&gt;&lt;br&gt;&lt;/pre&gt;" style="rounded=0;whiteSpace=wrap;html=1;" parent="1" vertex="1"><mxGeometry x="-580" y="720" width="120" height="60" as="geometry"/></mxCell><mxCell id="xRPIcVJvBs_LHuUNJkDG-30" style="edgeStyle=orthogonalEdgeStyle;rounded=0;orthogonalLoop=1;jettySize=auto;html=1;entryX=0.5;entryY=0;entryDx=0;entryDy=0;" parent="1" source="19bT7xeu2GanwZoAcjP5-17" target="19bT7xeu2GanwZoAcjP5-15" edge="1"><mxGeometry relative="1" as="geometry"><Array as="points"><mxPoint x="-520" y="1090"/><mxPoint x="-230" y="1090"/></Array><mxPoint x="-230" y="1100" as="targetPoint"/></mxGeometry></mxCell><mxCell id="19bT7xeu2GanwZoAcjP5-17" value="&lt;pre style=&quot;font-family: &amp;quot;JetBrains Mono&amp;quot;, monospace;&quot;&gt;&lt;span style=&quot;font-family: Helvetica;&quot;&gt;mapDirection = L&lt;/span&gt;&lt;/pre&gt;" style="rounded=0;whiteSpace=wrap;html=1;" parent="1" vertex="1"><mxGeometry x="-580" y="1010" width="120" height="60" as="geometry"/></mxCell><mxCell id="LEkaeQWxQuSCBjn-dGKS-6" value="No" style="text;html=1;strokeColor=none;fillColor=none;align=center;verticalAlign=middle;whiteSpace=wrap;rounded=0;" parent="1" vertex="1"><mxGeometry x="-715" y="690" width="60" height="30" as="geometry"/></mxCell><mxCell id="LEkaeQWxQuSCBjn-dGKS-7" value="No" style="text;html=1;strokeColor=none;fillColor=none;align=center;verticalAlign=middle;whiteSpace=wrap;rounded=0;" parent="1" vertex="1"><mxGeometry x="-720" y="980" width="60" height="30" as="geometry"/></mxCell><mxCell id="xRPIcVJvBs_LHuUNJkDG-12" style="edgeStyle=orthogonalEdgeStyle;rounded=0;orthogonalLoop=1;jettySize=auto;html=1;" parent="1" target="19bT7xeu2GanwZoAcjP5-15" edge="1"><mxGeometry relative="1" as="geometry"><mxPoint x="-230" y="1160" as="sourcePoint"/></mxGeometry></mxCell><mxCell id="xRPIcVJvBs_LHuUNJkDG-5" style="edgeStyle=orthogonalEdgeStyle;rounded=0;orthogonalLoop=1;jettySize=auto;html=1;entryX=0.5;entryY=0;entryDx=0;entryDy=0;" parent="1" source="94aGW_dUyxDY2enkw5zE-4" target="94aGW_dUyxDY2enkw5zE-6" edge="1"><mxGeometry relative="1" as="geometry"/></mxCell><mxCell id="xRPIcVJvBs_LHuUNJkDG-23" style="edgeStyle=orthogonalEdgeStyle;rounded=0;orthogonalLoop=1;jettySize=auto;html=1;entryX=0.5;entryY=0;entryDx=0;entryDy=0;" parent="1" source="94aGW_dUyxDY2enkw5zE-4" target="19bT7xeu2GanwZoAcjP5-16" edge="1"><mxGeometry relative="1" as="geometry"/></mxCell><mxCell id="94aGW_dUyxDY2enkw5zE-4" value="&lt;pre style=&quot;font-family: &amp;quot;JetBrains Mono&amp;quot;, monospace;&quot;&gt;&lt;pre style=&quot;font-family: &amp;quot;JetBrains Mono&amp;quot;, monospace;&quot;&gt;photoCount[0]&lt;/pre&gt;&lt;pre style=&quot;font-family: &amp;quot;JetBrains Mono&amp;quot;, monospace;&quot;&gt;==&lt;/pre&gt;&lt;pre style=&quot;font-family: &amp;quot;JetBrains Mono&amp;quot;, monospace;&quot;&gt;_photoCount[0]&lt;/pre&gt;&lt;/pre&gt;" style="rhombus;whiteSpace=wrap;html=1;" parent="1" vertex="1"><mxGeometry x="-600" y="530" width="160" height="160" as="geometry"/></mxCell><mxCell id="xRPIcVJvBs_LHuUNJkDG-29" style="edgeStyle=orthogonalEdgeStyle;rounded=0;orthogonalLoop=1;jettySize=auto;html=1;" parent="1" source="94aGW_dUyxDY2enkw5zE-6" target="xRPIcVJvBs_LHuUNJkDG-26" edge="1"><mxGeometry relative="1" as="geometry"/></mxCell><mxCell id="94aGW_dUyxDY2enkw5zE-6" value="&lt;pre style=&quot;font-family: &amp;quot;JetBrains Mono&amp;quot;, monospace;&quot;&gt;&lt;span style=&quot;font-family: Helvetica;&quot;&gt;mapEnd = True&lt;/span&gt;&lt;br&gt;&lt;/pre&gt;" style="rounded=0;whiteSpace=wrap;html=1;" parent="1" vertex="1"><mxGeometry x="-410" y="640" width="120" height="60" as="geometry"/></mxCell><mxCell id="xRPIcVJvBs_LHuUNJkDG-2" value="Yes" style="text;html=1;strokeColor=none;fillColor=none;align=center;verticalAlign=middle;whiteSpace=wrap;rounded=0;" parent="1" vertex="1"><mxGeometry x="-440" y="580" width="60" height="30" as="geometry"/></mxCell><mxCell id="xRPIcVJvBs_LHuUNJkDG-24" style="edgeStyle=orthogonalEdgeStyle;rounded=0;orthogonalLoop=1;jettySize=auto;html=1;entryX=0.5;entryY=0;entryDx=0;entryDy=0;" parent="1" source="xRPIcVJvBs_LHuUNJkDG-6" target="19bT7xeu2GanwZoAcjP5-17" edge="1"><mxGeometry relative="1" as="geometry"/></mxCell><mxCell id="xRPIcVJvBs_LHuUNJkDG-25" style="edgeStyle=orthogonalEdgeStyle;rounded=0;orthogonalLoop=1;jettySize=auto;html=1;entryX=0.5;entryY=0;entryDx=0;entryDy=0;" parent="1" source="xRPIcVJvBs_LHuUNJkDG-6" target="xRPIcVJvBs_LHuUNJkDG-9" edge="1"><mxGeometry relative="1" as="geometry"/></mxCell><mxCell id="xRPIcVJvBs_LHuUNJkDG-6" value="&lt;br&gt;&lt;pre style=&quot;color: rgb(0, 0, 0); font-size: 12px; font-style: normal; font-variant-ligatures: normal; font-variant-caps: normal; font-weight: 400; letter-spacing: normal; orphans: 2; text-align: center; text-indent: 0px; text-transform: none; widows: 2; word-spacing: 0px; -webkit-text-stroke-width: 0px; text-decoration-thickness: initial; text-decoration-style: initial; text-decoration-color: initial; font-family: &amp;quot;JetBrains Mono&amp;quot;, monospace;&quot;&gt;&lt;pre style=&quot;font-family: &amp;quot;JetBrains Mono&amp;quot;, monospace;&quot;&gt;photoCount[0]&lt;/pre&gt;&lt;pre style=&quot;font-family: &amp;quot;JetBrains Mono&amp;quot;, monospace;&quot;&gt;==&lt;/pre&gt;&lt;pre style=&quot;font-family: &amp;quot;JetBrains Mono&amp;quot;, monospace;&quot;&gt;_photoCount[0]&lt;/pre&gt;&lt;/pre&gt;&lt;br&gt;" style="rhombus;whiteSpace=wrap;html=1;" parent="1" vertex="1"><mxGeometry x="-600" y="820" width="160" height="160" as="geometry"/></mxCell><mxCell id="xRPIcVJvBs_LHuUNJkDG-28" style="edgeStyle=orthogonalEdgeStyle;rounded=0;orthogonalLoop=1;jettySize=auto;html=1;entryX=0.5;entryY=0;entryDx=0;entryDy=0;" parent="1" source="xRPIcVJvBs_LHuUNJkDG-9" target="xRPIcVJvBs_LHuUNJkDG-27" edge="1"><mxGeometry relative="1" as="geometry"/></mxCell><mxCell id="xRPIcVJvBs_LHuUNJkDG-9" value="&lt;pre style=&quot;font-family: &amp;quot;JetBrains Mono&amp;quot;, monospace;&quot;&gt;&lt;span style=&quot;font-family: Helvetica;&quot;&gt;mapEnd = True&lt;/span&gt;&lt;br&gt;&lt;/pre&gt;" style="rounded=0;whiteSpace=wrap;html=1;" parent="1" vertex="1"><mxGeometry x="-410" y="920" width="120" height="60" as="geometry"/></mxCell><mxCell id="xRPIcVJvBs_LHuUNJkDG-11" value="Yes" style="text;html=1;strokeColor=none;fillColor=none;align=center;verticalAlign=middle;whiteSpace=wrap;rounded=0;" parent="1" vertex="1"><mxGeometry x="-440" y="870" width="60" height="30" as="geometry"/></mxCell><mxCell id="xRPIcVJvBs_LHuUNJkDG-19" value="No" style="text;html=1;strokeColor=none;fillColor=none;align=center;verticalAlign=middle;whiteSpace=wrap;rounded=0;" parent="1" vertex="1"><mxGeometry x="-530" y="690" width="60" height="30" as="geometry"/></mxCell><mxCell id="xRPIcVJvBs_LHuUNJkDG-22" value="No" style="text;html=1;strokeColor=none;fillColor=none;align=center;verticalAlign=middle;whiteSpace=wrap;rounded=0;" parent="1" vertex="1"><mxGeometry x="-530" y="980" width="60" height="30" as="geometry"/></mxCell><mxCell id="xRPIcVJvBs_LHuUNJkDG-26" value="" style="ellipse;whiteSpace=wrap;html=1;aspect=fixed;" parent="1" vertex="1"><mxGeometry x="-375" y="720" width="50" height="50" as="geometry"/></mxCell><mxCell id="xRPIcVJvBs_LHuUNJkDG-27" value="" style="ellipse;whiteSpace=wrap;html=1;aspect=fixed;" parent="1" vertex="1"><mxGeometry x="-375" y="1000" width="50" height="50" as="geometry"/></mxCell><mxCell id="QEdZKegxMu1BIWH5tdOG-1" value="" style="ellipse;whiteSpace=wrap;html=1;aspect=fixed;" parent="1" vertex="1"><mxGeometry x="-745" y="1350" width="50" height="50" as="geometry"/></mxCell></root></mxGraphModel></diagram><diagram id="NXx_NuXW3G7TuwcSm7FI" name="InsertPhotoIntuMap"><mxGraphModel dx="646" dy="654" grid="1" gridSize="10" guides="1" tooltips="1" connect="1" arrows="1" fold="1" page="1" pageScale="1" pageWidth="850" pageHeight="1100" math="0" shadow="0"><root><mxCell id="0"/><mxCell id="1" parent="0"/></root></mxGraphModel></diagram></mxfile>